<svg xmlns="http://www.w3.org/2000/svg" width="670" height="587" viewBox="0 0 670 587" version="1.1"><g transform="scale(0.5)"><path d="M 0 67 L 0 134 23.250 134.014 C 36.038 134.021, 47.512 134.299, 48.750 134.630 C 50.696 135.152, 51 135.897, 51 140.149 C 51 147.043, 53.035 151.314, 57.278 153.328 C 60.069 154.652, 63.822 155, 75.319 155 C 83.304 155, 90.548 155.273, 91.418 155.607 C 92.564 156.047, 93 157.571, 93 161.139 C 93 167.199, 95.069 172.411, 98.165 174.151 C 99.449 174.872, 103.425 175.696, 107 175.981 L 113.500 176.500 114.193 182.783 C 114.574 186.238, 115.177 189.982, 115.532 191.102 C 116.574 194.385, 121.890 196.992, 127.550 196.996 C 130.327 196.998, 133.140 197.540, 133.800 198.200 C 134.625 199.025, 135 204.029, 135 214.232 C 135 224.565, 135.418 230.064, 136.377 232.360 C 138.069 236.410, 143.101 239, 149.279 239 C 151.913 239, 154.237 239.581, 154.927 240.412 C 155.790 241.451, 156.080 254.922, 156.028 291.541 C 155.990 318.886, 155.716 341.650, 155.420 342.129 C 155.124 342.608, 152.614 343, 149.842 343 C 147.070 343, 143.307 343.710, 141.478 344.577 C 135.994 347.180, 135.002 350.703, 134.985 367.651 C 134.976 375.818, 134.639 383.004, 134.235 383.621 C 133.831 384.238, 130.622 384.946, 127.105 385.195 C 121.279 385.608, 120.412 385.974, 117.355 389.310 C 114.444 392.487, 113.998 393.667, 113.985 398.235 C 113.976 401.131, 113.639 404.003, 113.235 404.617 C 112.831 405.232, 109.518 406.049, 105.874 406.434 C 97.387 407.329, 94 410.363, 93.327 417.674 C 92.384 427.914, 94.044 427, 76.382 427 C 54.514 427, 52.182 428.290, 51.069 441 L 50.500 447.500 45.500 448.162 C 42.750 448.527, 31.387 448.864, 20.250 448.912 L 0 449 0 518 L 0 587 5 587 L 10 587 10 560.631 L 10 534.262 13.750 533.642 C 15.813 533.301, 18.997 533.017, 20.827 533.011 C 23.161 533.003, 25.026 532.128, 27.077 530.077 C 29.967 527.187, 30 527.024, 30 515.724 C 30 509.437, 30.289 501.527, 30.642 498.147 L 31.285 492 35.017 492 C 40.829 492, 44.463 491.003, 47.512 488.572 C 49.872 486.691, 50.445 485.270, 51.125 479.627 C 51.569 475.937, 52.166 472.540, 52.452 472.077 C 52.738 471.615, 55.905 470.922, 59.489 470.538 C 64.852 469.964, 66.526 469.320, 68.944 466.902 C 71.416 464.430, 71.990 462.875, 72.559 457.102 L 73.235 450.240 77.757 449.620 C 80.244 449.279, 88.041 449, 95.084 449 C 107.071 449, 108.062 448.850, 110.612 446.657 C 112.838 444.742, 113.539 442.963, 114.448 436.919 L 115.561 429.524 119.530 428.820 C 124.378 427.959, 213.598 427.786, 216.750 428.630 C 218.696 429.152, 219 429.897, 219 434.149 C 219 441.043, 221.035 445.314, 225.278 447.328 C 228.069 448.652, 231.822 449, 243.319 449 C 251.304 449, 258.548 449.273, 259.418 449.607 C 260.564 450.047, 261 451.571, 261 455.139 C 261 461.199, 263.069 466.411, 266.165 468.151 C 267.449 468.872, 271.425 469.696, 275 469.981 L 281.500 470.500 282.193 476.783 C 282.574 480.238, 283.177 483.982, 283.532 485.102 C 284.574 488.385, 289.890 490.992, 295.550 490.996 C 298.328 490.998, 301.140 491.540, 301.800 492.200 C 302.625 493.025, 303 498.029, 303 508.232 C 303 518.565, 303.418 524.064, 304.377 526.360 C 306.069 530.410, 311.101 533, 317.279 533 C 319.966 533, 322.235 533.579, 322.957 534.448 C 323.829 535.499, 324.129 542.891, 324.053 561.448 L 323.948 587 334.474 587 L 345 587 345 560.631 L 345 534.262 348.750 533.642 C 350.813 533.301, 353.997 533.017, 355.827 533.011 C 358.161 533.003, 360.026 532.128, 362.077 530.077 C 364.967 527.187, 365 527.024, 365 515.724 C 365 509.437, 365.289 501.527, 365.642 498.147 L 366.285 492 370.017 492 C 375.829 492, 379.463 491.003, 382.512 488.572 C 384.872 486.691, 385.445 485.270, 386.125 479.627 C 386.569 475.937, 387.166 472.540, 387.452 472.077 C 387.738 471.615, 390.905 470.922, 394.489 470.538 C 399.852 469.964, 401.526 469.320, 403.944 466.902 C 406.416 464.430, 406.990 462.875, 407.559 457.102 L 408.235 450.240 412.757 449.620 C 415.244 449.279, 423.041 449, 430.084 449 C 442.071 449, 443.062 448.850, 445.612 446.657 C 447.838 444.742, 448.539 442.963, 449.448 436.919 L 450.561 429.524 454.530 428.820 C 459.378 427.959, 548.598 427.786, 551.750 428.630 C 553.696 429.152, 554 429.897, 554 434.149 C 554 441.043, 556.035 445.314, 560.278 447.328 C 563.069 448.652, 566.822 449, 578.319 449 C 586.304 449, 593.548 449.273, 594.418 449.607 C 595.564 450.047, 596 451.571, 596 455.139 C 596 461.199, 598.069 466.411, 601.165 468.151 C 602.449 468.872, 606.425 469.696, 610 469.981 L 616.500 470.500 617.193 476.783 C 617.574 480.238, 618.177 483.982, 618.532 485.102 C 619.574 488.385, 624.890 490.992, 630.550 490.996 C 633.327 490.998, 636.140 491.540, 636.800 492.200 C 637.625 493.025, 638 498.029, 638 508.232 C 638 518.565, 638.418 524.064, 639.377 526.360 C 641.069 530.410, 646.101 533, 652.279 533 C 654.966 533, 657.235 533.579, 657.957 534.448 C 658.829 535.499, 659.129 542.902, 659.053 561.498 L 658.948 587.101 664.724 586.801 L 670.500 586.500 670.756 517.500 L 671.012 448.500 644.588 448.500 C 630.055 448.500, 617.853 448.188, 617.472 447.806 C 617.091 447.424, 616.544 444.189, 616.257 440.617 C 615.815 435.100, 615.294 433.697, 612.805 431.311 C 609.887 428.511, 609.808 428.498, 592.958 427.937 C 583.653 427.627, 575.756 427.090, 575.409 426.743 C 575.063 426.396, 574.540 423.132, 574.247 419.491 C 573.804 413.969, 573.252 412.406, 570.923 410.077 C 568.594 407.748, 567.031 407.196, 561.509 406.753 C 557.868 406.460, 554.639 405.972, 554.334 405.668 C 554.030 405.363, 553.438 401.989, 553.019 398.169 C 552.599 394.349, 551.945 390.720, 551.565 390.105 C 550.261 387.995, 545.369 386.141, 539.288 385.453 C 533.529 384.802, 533.171 384.603, 532.601 381.757 C 532.271 380.103, 532 372.366, 532 364.564 C 532 351.543, 531.828 350.192, 529.904 348.127 C 527.199 345.224, 523.894 344.004, 518.685 343.985 C 510.969 343.956, 511.487 347.953, 511.857 291.294 C 512.039 263.357, 512.307 240.377, 512.452 240.226 C 512.597 240.075, 515.814 239.662, 519.602 239.308 C 525.304 238.776, 526.963 238.191, 529.244 235.910 C 531.930 233.223, 532 232.865, 532 221.724 C 532 215.437, 532.289 207.527, 532.642 204.147 L 533.285 198 537.017 198 C 542.829 198, 546.463 197.003, 549.512 194.572 C 551.872 192.691, 552.445 191.270, 553.125 185.627 C 553.569 181.937, 554.166 178.540, 554.452 178.077 C 554.738 177.615, 557.905 176.922, 561.489 176.538 C 566.852 175.964, 568.526 175.320, 570.944 172.902 C 573.416 170.430, 573.990 168.875, 574.559 163.102 L 575.235 156.240 579.757 155.620 C 582.244 155.279, 590.101 155, 597.216 155 C 610.080 155, 610.170 154.984, 612.979 152.175 C 615.288 149.866, 615.934 148.130, 616.520 142.661 C 616.914 138.982, 617.745 135.641, 618.368 135.236 C 618.991 134.831, 630.975 134.275, 645 134 L 670.500 133.500 670.757 66.750 L 671.014 0 665.025 0 L 659.035 0 658.767 24.750 L 658.500 49.500 652 50.071 C 639.543 51.164, 638.006 53.860, 637.985 74.651 C 637.976 82.818, 637.639 90.004, 637.235 90.621 C 636.831 91.238, 633.622 91.946, 630.105 92.195 C 624.279 92.608, 623.412 92.974, 620.355 96.310 C 617.444 99.487, 616.998 100.667, 616.985 105.235 C 616.976 108.131, 616.639 111.003, 616.235 111.617 C 615.831 112.232, 612.518 113.049, 608.874 113.434 C 600.387 114.329, 597 117.363, 596.327 124.674 C 595.384 134.914, 597.044 134, 579.382 134 C 557.515 134, 555.182 135.290, 554.069 147.999 L 553.500 154.497 547.500 155.265 C 540.192 156.201, 451.445 155.781, 450.472 154.806 C 450.091 154.424, 449.544 151.189, 449.257 147.617 C 448.815 142.100, 448.294 140.697, 445.805 138.311 C 442.887 135.511, 442.808 135.498, 425.958 134.937 C 416.653 134.627, 408.756 134.090, 408.409 133.743 C 408.063 133.396, 407.540 130.132, 407.247 126.491 C 406.804 120.969, 406.252 119.406, 403.923 117.077 C 401.594 114.748, 400.031 114.196, 394.509 113.753 C 390.868 113.460, 387.639 112.972, 387.334 112.668 C 387.030 112.363, 386.438 108.989, 386.019 105.169 C 385.599 101.349, 384.945 97.720, 384.565 97.105 C 383.261 94.995, 378.369 93.141, 372.288 92.453 C 366.529 91.802, 366.171 91.603, 365.601 88.757 C 365.271 87.103, 365 79.366, 365 71.564 C 365 58.543, 364.828 57.192, 362.904 55.127 C 360.199 52.224, 356.894 51.004, 351.685 50.985 C 344.185 50.957, 344.457 52.008, 344.862 24.533 L 345.223 -0 334.629 -0 L 324.035 0 323.767 24.750 L 323.500 49.500 317 50.071 C 304.543 51.164, 303.006 53.860, 302.985 74.651 C 302.976 82.818, 302.639 90.004, 302.235 90.621 C 301.831 91.238, 298.622 91.946, 295.105 92.195 C 289.279 92.608, 288.412 92.974, 285.355 96.310 C 282.444 99.487, 281.998 100.667, 281.985 105.235 C 281.976 108.131, 281.639 111.003, 281.235 111.617 C 280.831 112.232, 277.518 113.049, 273.874 113.434 C 265.387 114.329, 262 117.363, 261.327 124.674 C 260.384 134.914, 262.044 134, 244.382 134 C 222.515 134, 220.182 135.290, 219.069 147.999 L 218.500 154.497 212.500 155.265 C 205.192 156.201, 116.445 155.781, 115.472 154.806 C 115.091 154.424, 114.544 151.189, 114.257 147.617 C 113.815 142.100, 113.294 140.697, 110.805 138.311 C 107.887 135.511, 107.808 135.498, 90.958 134.937 C 81.653 134.627, 73.756 134.090, 73.409 133.743 C 73.063 133.396, 72.540 130.132, 72.247 126.491 C 71.804 120.969, 71.252 119.406, 68.923 117.077 C 66.594 114.748, 65.031 114.196, 59.509 113.753 C 55.868 113.460, 52.639 112.972, 52.334 112.668 C 52.030 112.363, 51.438 108.989, 51.019 105.169 C 50.599 101.349, 49.945 97.720, 49.565 97.105 C 48.261 94.995, 43.369 93.141, 37.288 92.453 C 31.529 91.802, 31.171 91.603, 30.601 88.757 C 30.271 87.103, 30 79.366, 30 71.564 C 30 58.543, 29.828 57.192, 27.904 55.127 C 25.199 52.224, 21.894 51.004, 16.685 50.985 C 9.185 50.957, 9.457 52.008, 9.862 24.533 L 10.223 -0 5.112 -0 L 0 0 0 67 M 31.022 1.250 C 31.054 3.045, 34.107 6.564, 36.855 7.974 C 41.480 10.348, 48.417 7.141, 50.320 1.750 C 50.881 0.159, 50.031 0, 40.969 0 C 33.649 0, 31.006 0.332, 31.022 1.250 M 93 3.893 C 93 6.520, 92.486 7.983, 91.418 8.393 C 90.548 8.727, 83.415 9, 75.567 9 C 67.719 9, 59.911 9.484, 58.215 10.075 C 53.899 11.579, 51.826 15.296, 51.242 22.578 C 50.677 29.617, 50.238 29.962, 41.827 29.986 C 32.156 30.015, 27.487 40.037, 33.835 47.141 C 36.353 49.960, 37.440 50.379, 43.585 50.907 L 50.500 51.500 51 68.500 C 51.654 90.745, 52.181 91.662, 65 92.881 L 71.500 93.500 72.500 100.500 C 74.287 113.011, 74.926 113.372, 96.402 114 L 113.500 114.500 114.500 121.739 C 115.303 127.550, 116.047 129.522, 118.272 131.739 L 121.044 134.500 165.772 134.763 C 209.093 135.018, 210.603 134.963, 213.775 133.013 C 217.531 130.703, 219 127.570, 219 121.869 C 219 114.068, 219.148 114, 236.067 114 C 252.997 114, 256.905 113.018, 259.434 108.128 C 260.295 106.462, 261 102.917, 261 100.250 C 261 97.582, 261.540 94.860, 262.200 94.200 C 262.860 93.540, 265.582 93, 268.250 93 C 270.917 93, 274.419 92.317, 276.033 91.483 C 281.156 88.834, 282 85.721, 282 69.484 C 282 61.321, 282.457 54.015, 283.035 52.934 C 283.847 51.417, 285.151 51, 289.085 51 C 291.843 51, 295.419 50.317, 297.033 49.483 C 302.494 46.659, 303 44.249, 303 21.050 L 303 0 292.500 0 L 282 0 282 3.465 C 282 5.867, 281.407 7.247, 280.066 7.965 C 278.998 8.536, 271.896 9, 264.215 9 C 249.107 9, 244.972 9.867, 242.566 13.540 C 240.757 16.300, 240.510 22.216, 242.080 25.150 C 243.485 27.775, 248.902 30, 253.886 30 C 261.344 30, 261 28.985, 261 50.982 L 261 70.750 257.875 71.375 C 256.156 71.719, 253.031 72, 250.931 72 C 244.646 72, 241.886 75.211, 240.553 84.070 L 239.443 91.454 234.971 92.252 C 229.710 93.191, 220.815 92.242, 219.765 90.629 C 219.361 90.008, 219.024 87.145, 219.015 84.266 C 219.003 79.942, 218.507 78.479, 216.163 75.857 C 213.718 73.120, 212.387 72.569, 206.518 71.862 C 202.773 71.411, 199.437 70.771, 199.105 70.440 C 197.989 69.328, 197.806 35.616, 198.900 32.750 C 199.834 30.306, 200.457 30, 204.507 30 C 210.675 30, 215.540 27.790, 217.434 24.128 C 221.704 15.870, 216.355 9.025, 205.601 8.985 C 200.278 8.965, 199.328 8.266, 198.480 3.748 L 197.777 -0 187.389 -0 L 177 0 177 3.893 C 177 8.297, 176.012 9, 169.819 9 C 161.853 9, 157 13.195, 157 20.082 C 157 26.252, 161.939 30, 170.067 30 C 177.317 30, 177 29.041, 177 50.990 C 177 73.474, 177.661 71.958, 167.856 71.986 C 164.166 71.997, 162.598 72.573, 160.229 74.786 C 157.660 77.186, 157.147 78.557, 156.534 84.658 L 155.823 91.742 150.802 92.337 C 144.794 93.049, 136.788 92.122, 135.765 90.596 C 135.361 89.993, 135.024 87.145, 135.015 84.266 C 135.003 79.942, 134.507 78.479, 132.163 75.857 C 129.718 73.120, 128.387 72.569, 122.518 71.862 C 118.773 71.411, 115.437 70.771, 115.105 70.440 C 114.098 69.436, 113.770 37.668, 114.728 33.958 C 115.596 30.599, 115.791 30.484, 121.561 29.922 C 128.755 29.223, 131.502 27.864, 133.490 24.020 C 137.566 16.137, 132.419 9.030, 122.601 8.986 C 116.606 8.960, 115.188 8.072, 114.483 3.902 L 113.824 0 103.412 0 L 93 0 93 3.893 M 136 1.545 C 136 4.664, 140.662 8, 145.020 8 C 150.187 8, 152.566 6.740, 154.515 2.970 L 156.051 0 146.026 0 C 137.650 0, 136 0.254, 136 1.545 M 220 1.545 C 220 4.664, 224.662 8, 229.020 8 C 234.187 8, 236.566 6.740, 238.515 2.970 L 240.051 0 230.026 0 C 221.650 0, 220 0.254, 220 1.545 M 366.022 1.250 C 366.054 3.045, 369.107 6.564, 371.855 7.974 C 376.480 10.348, 383.417 7.141, 385.320 1.750 C 385.881 0.159, 385.031 0, 375.969 0 C 368.649 0, 366.006 0.332, 366.022 1.250 M 428 3.893 C 428 6.520, 427.486 7.983, 426.418 8.393 C 425.548 8.727, 418.415 9, 410.567 9 C 402.719 9, 394.911 9.484, 393.215 10.075 C 388.899 11.579, 386.826 15.296, 386.242 22.578 C 385.677 29.617, 385.238 29.962, 376.827 29.986 C 367.156 30.015, 362.487 40.037, 368.835 47.141 C 371.353 49.960, 372.440 50.379, 378.585 50.907 L 385.500 51.500 386 68.500 C 386.654 90.745, 387.181 91.662, 400 92.881 L 406.500 93.500 407.500 100.500 C 409.287 113.011, 409.926 113.372, 431.402 114 L 448.500 114.500 449.500 121.739 C 450.303 127.550, 451.047 129.522, 453.272 131.739 L 456.044 134.500 500.772 134.763 C 544.093 135.018, 545.603 134.963, 548.775 133.013 C 552.531 130.703, 554 127.570, 554 121.869 C 554 114.068, 554.148 114, 571.067 114 C 587.997 114, 591.905 113.018, 594.434 108.128 C 595.295 106.462, 596 102.917, 596 100.250 C 596 97.582, 596.540 94.860, 597.200 94.200 C 597.860 93.540, 600.582 93, 603.250 93 C 605.917 93, 609.419 92.317, 611.033 91.483 C 616.156 88.834, 617 85.721, 617 69.484 C 617 61.321, 617.457 54.015, 618.035 52.934 C 618.847 51.417, 620.151 51, 624.085 51 C 626.843 51, 630.419 50.317, 632.033 49.483 C 637.494 46.659, 638 44.249, 638 21.050 L 638 0 627.500 0 L 617 0 617 3.465 C 617 5.867, 616.407 7.247, 615.066 7.965 C 613.998 8.536, 606.896 9, 599.215 9 C 584.107 9, 579.972 9.867, 577.566 13.540 C 575.757 16.300, 575.510 22.216, 577.080 25.150 C 578.485 27.775, 583.902 30, 588.886 30 C 596.344 30, 596 28.985, 596 50.982 L 596 70.750 592.875 71.375 C 591.156 71.719, 588.031 72, 585.931 72 C 579.646 72, 576.886 75.211, 575.553 84.070 L 574.443 91.454 569.971 92.252 C 564.710 93.191, 555.815 92.242, 554.765 90.629 C 554.361 90.008, 554.024 87.145, 554.015 84.266 C 554.003 79.942, 553.507 78.479, 551.163 75.857 C 548.718 73.120, 547.387 72.569, 541.518 71.862 C 537.773 71.411, 534.437 70.771, 534.105 70.440 C 532.989 69.328, 532.806 35.616, 533.900 32.750 C 534.834 30.306, 535.457 30, 539.507 30 C 545.675 30, 550.540 27.790, 552.434 24.128 C 556.704 15.870, 551.355 9.025, 540.601 8.985 C 535.278 8.965, 534.328 8.266, 533.480 3.748 L 532.777 -0 522.389 -0 L 512 0 512 3.893 C 512 8.297, 511.012 9, 504.819 9 C 496.853 9, 492 13.195, 492 20.082 C 492 26.252, 496.939 30, 505.067 30 C 512.317 30, 512 29.041, 512 50.990 C 512 73.474, 512.661 71.958, 502.856 71.986 C 499.166 71.997, 497.598 72.573, 495.229 74.786 C 492.660 77.186, 492.147 78.557, 491.534 84.658 L 490.823 91.742 485.802 92.337 C 479.794 93.049, 471.788 92.122, 470.765 90.596 C 470.361 89.993, 470.024 87.145, 470.015 84.266 C 470.003 79.942, 469.507 78.479, 467.163 75.857 C 464.718 73.120, 463.387 72.569, 457.518 71.862 C 453.773 71.411, 450.437 70.771, 450.105 70.440 C 449.098 69.436, 448.770 37.668, 449.728 33.958 C 450.596 30.599, 450.791 30.484, 456.561 29.922 C 463.755 29.223, 466.502 27.864, 468.490 24.020 C 472.566 16.137, 467.419 9.030, 457.601 8.986 C 451.606 8.960, 450.188 8.072, 449.483 3.902 L 448.824 0 438.412 0 L 428 0 428 3.893 M 471 1.545 C 471 4.664, 475.662 8, 480.020 8 C 485.187 8, 487.566 6.740, 489.515 2.970 L 491.051 0 481.026 0 C 472.650 0, 471 0.254, 471 1.545 M 555 1.545 C 555 4.664, 559.662 8, 564.020 8 C 569.187 8, 571.566 6.740, 573.515 2.970 L 575.051 0 565.026 0 C 556.650 0, 555 0.254, 555 1.545 M 0.472 67.500 C 0.472 104.350, 0.597 119.280, 0.750 100.677 C 0.902 82.075, 0.902 51.925, 0.749 33.677 C 0.597 15.430, 0.472 30.650, 0.472 67.500 M 141.321 31.613 C 135.959 34.257, 134.748 38.367, 135.150 52.546 C 135.490 64.511, 135.583 64.956, 138.342 67.836 C 141.761 71.403, 145.415 72.271, 149.619 70.515 C 155.302 68.140, 156 66.030, 156 51.228 C 156 36.102, 155.027 32.902, 149.881 31.108 C 145.803 29.687, 145.149 29.725, 141.321 31.613 M 225.321 31.613 C 220.459 34.011, 219 38.204, 219 49.776 C 219 62.203, 219.616 65.343, 222.647 68.374 C 225.687 71.414, 229.626 72.183, 233.619 70.515 C 239.294 68.143, 240 66.021, 240 51.325 C 240 36.484, 239.255 33.823, 234.460 31.548 C 230.424 29.633, 229.321 29.641, 225.321 31.613 M 476.321 31.613 C 470.959 34.257, 469.748 38.367, 470.150 52.546 C 470.490 64.511, 470.583 64.956, 473.342 67.836 C 476.761 71.403, 480.415 72.271, 484.619 70.515 C 490.302 68.140, 491 66.030, 491 51.228 C 491 36.102, 490.027 32.902, 484.881 31.108 C 480.803 29.687, 480.149 29.725, 476.321 31.613 M 560.321 31.613 C 555.459 34.011, 554 38.204, 554 49.776 C 554 62.203, 554.616 65.343, 557.647 68.374 C 560.687 71.414, 564.626 72.183, 568.619 70.515 C 574.294 68.143, 575 66.021, 575 51.325 C 575 36.484, 574.255 33.823, 569.460 31.548 C 565.424 29.633, 564.321 29.641, 560.321 31.613 M 286.029 134.882 C 282.568 135.498, 282.556 135.519, 281.447 142.907 C 280.538 148.965, 279.840 150.741, 277.612 152.657 C 275.062 154.850, 274.071 155, 262.084 155 C 255.041 155, 247.244 155.279, 244.757 155.620 L 240.235 156.240 239.559 163.102 C 238.990 168.875, 238.416 170.430, 235.944 172.902 C 233.526 175.320, 231.852 175.964, 226.489 176.538 C 222.905 176.922, 219.738 177.615, 219.452 178.077 C 219.166 178.540, 218.569 181.937, 218.125 185.627 C 217.445 191.270, 216.872 192.691, 214.512 194.572 C 211.463 197.003, 207.829 198, 202.017 198 L 198.285 198 197.642 204.147 C 197.289 207.527, 197 215.437, 197 221.724 C 197 232.865, 196.930 233.223, 194.244 235.910 C 191.963 238.191, 190.304 238.776, 184.602 239.308 C 180.814 239.662, 177.597 240.075, 177.452 240.226 C 177.307 240.377, 177.039 263.357, 176.857 291.294 C 176.487 347.953, 175.969 343.956, 183.685 343.985 C 188.894 344.004, 192.199 345.224, 194.904 348.127 C 196.828 350.192, 197 351.543, 197 364.564 C 197 372.366, 197.271 380.103, 197.601 381.757 C 198.171 384.603, 198.529 384.802, 204.288 385.453 C 210.369 386.141, 215.261 387.995, 216.565 390.105 C 216.945 390.720, 217.599 394.349, 218.019 398.169 C 218.438 401.989, 219.030 405.363, 219.334 405.668 C 219.639 405.972, 222.868 406.460, 226.509 406.753 C 232.031 407.196, 233.594 407.748, 235.923 410.077 C 238.252 412.406, 238.804 413.969, 239.247 419.491 C 239.540 423.132, 240.063 426.396, 240.409 426.743 C 240.756 427.090, 248.653 427.627, 257.958 427.937 C 274.808 428.498, 274.887 428.511, 277.805 431.311 C 280.294 433.697, 280.815 435.100, 281.257 440.617 C 281.544 444.189, 282.091 447.424, 282.472 447.806 C 283.445 448.781, 372.192 449.201, 379.500 448.265 L 385.500 447.497 386.069 440.999 C 387.182 428.290, 389.515 427, 411.382 427 C 429.044 427, 427.384 427.914, 428.327 417.674 C 429 410.363, 432.387 407.329, 440.874 406.434 C 444.518 406.049, 447.831 405.232, 448.235 404.617 C 448.639 404.003, 448.976 401.131, 448.985 398.235 C 448.998 393.667, 449.444 392.487, 452.355 389.310 C 455.412 385.974, 456.279 385.608, 462.105 385.195 C 465.622 384.946, 468.831 384.238, 469.235 383.621 C 469.639 383.004, 469.976 375.818, 469.985 367.651 C 470.002 350.703, 470.994 347.180, 476.478 344.577 C 478.307 343.710, 482.070 343, 484.842 343 C 487.614 343, 490.124 342.608, 490.420 342.129 C 490.716 341.650, 490.990 318.886, 491.028 291.541 C 491.080 254.922, 490.790 241.451, 489.927 240.412 C 489.237 239.581, 486.913 239, 484.279 239 C 478.101 239, 473.069 236.410, 471.377 232.360 C 470.418 230.064, 470 224.565, 470 214.232 C 470 204.029, 469.625 199.025, 468.800 198.200 C 468.140 197.540, 465.328 196.998, 462.550 196.996 C 456.890 196.992, 451.574 194.385, 450.532 191.102 C 450.177 189.982, 449.574 186.238, 449.193 182.783 L 448.500 176.500 442 175.981 C 438.425 175.696, 434.449 174.872, 433.165 174.151 C 430.069 172.411, 428 167.199, 428 161.139 C 428 157.571, 427.564 156.047, 426.418 155.607 C 425.548 155.273, 418.304 155, 410.319 155 C 398.822 155, 395.069 154.652, 392.278 153.328 C 388.035 151.314, 386 147.043, 386 140.149 C 386 135.897, 385.696 135.152, 383.750 134.630 C 380.812 133.843, 290.556 134.075, 286.029 134.882 M 0 186.353 C 0 216.850, 0.059 217.797, 1.914 217.312 C 5.849 216.283, 8.218 212.382, 8.904 205.804 C 9.265 202.337, 9.911 198.938, 10.339 198.250 C 10.861 197.413, 13.864 197, 19.437 197 C 24.892 197, 28.099 197.430, 28.754 198.250 C 29.304 198.938, 30.076 202.168, 30.471 205.429 C 31.615 214.881, 34.839 218, 43.465 218 C 51.409 218, 51 216.861, 51 239 C 51 261.037, 51.355 260, 43.819 260 C 35.853 260, 31 264.195, 31 271.082 C 31 277.252, 35.939 281, 44.067 281 C 50.274 281, 51 281.643, 51 287.139 C 51 293.003, 53.057 298.425, 55.850 299.920 C 58.407 301.288, 64.541 301.316, 67.055 299.970 C 69.854 298.472, 72 293.705, 72 288.984 C 72 281.054, 72.116 281, 89.067 281 C 109.844 281, 114 278.952, 114 268.712 C 114 261.422, 115.138 260, 120.970 260 C 127.559 260, 130.603 258.683, 133.047 254.775 C 135.626 250.652, 135.041 245.586, 131.586 242.132 C 129.694 240.240, 127.530 239.465, 122.410 238.849 C 118.724 238.405, 115.437 237.771, 115.105 237.440 C 114.772 237.108, 114.368 229.786, 114.207 221.168 C 114.046 212.551, 113.471 204.363, 112.928 202.972 C 111.499 199.311, 108.346 197.693, 101.131 196.918 C 97.499 196.528, 94.390 195.646, 93.897 194.867 C 93.420 194.115, 93.024 191.145, 93.015 188.266 C 93.003 183.909, 92.511 182.484, 90.084 179.766 L 87.169 176.500 70.334 176.202 C 50.987 175.860, 51 175.866, 51 167.325 C 51 162.891, 50.527 161.502, 48.084 158.766 L 45.168 155.500 22.584 155.197 L 0 154.894 0 186.353 M 287.241 156.309 C 283.581 158.368, 282.252 161.133, 281.487 168.281 C 280.869 174.044, 280.456 175.089, 278.632 175.493 C 277.460 175.753, 269.599 176.086, 261.165 176.233 L 245.831 176.500 243.004 179.667 C 240.772 182.166, 240.031 184.201, 239.482 189.328 C 238.707 196.563, 238.227 196.961, 230.235 196.986 C 226.785 196.997, 225.257 197.653, 222.235 200.421 L 218.500 203.843 218.167 220.813 L 217.835 237.783 214.792 238.392 C 213.119 238.726, 210.427 239, 208.809 239 C 205.229 239, 202.075 240.524, 199.772 243.367 C 198.238 245.261, 198.044 248.303, 198.044 270.500 C 198.044 292.697, 198.238 295.739, 199.772 297.633 C 202.377 300.849, 205.827 302.255, 209.445 301.576 C 214.610 300.607, 217.146 297.078, 217.904 289.804 C 218.265 286.337, 218.911 282.938, 219.339 282.250 C 219.906 281.340, 224.195 281, 235.091 281 C 251.995 281, 255.906 280.016, 258.434 275.128 C 262.756 266.769, 257.487 260.025, 246.601 259.985 C 239.608 259.959, 239.541 259.810, 239.153 243.391 C 238.962 235.314, 239.101 226.347, 239.461 223.463 L 240.117 218.219 247.069 217.826 C 256.516 217.292, 258.951 214.965, 259.927 205.536 C 260.351 201.443, 261.177 198.500, 262.059 197.942 C 263.776 196.856, 278.021 196.713, 279.606 197.765 C 280.214 198.169, 281.031 201.373, 281.421 204.884 C 282.523 214.814, 285.692 218, 294.465 218 C 302.411 218, 302 216.851, 302 239.088 C 302 261.686, 303.032 259.370, 292.532 260.343 C 286.265 260.924, 282 265.058, 282 270.551 C 282 277.257, 286.681 281, 295.067 281 C 301.274 281, 302 281.643, 302 287.139 C 302 293.003, 304.057 298.425, 306.850 299.920 C 309.407 301.288, 315.541 301.316, 318.055 299.970 C 320.722 298.543, 323 293.772, 323 289.615 C 323 287.698, 323.439 284.976, 323.975 283.565 C 324.825 281.330, 325.536 281, 329.507 281 C 335.675 281, 340.540 278.790, 342.434 275.128 C 346.756 266.769, 341.487 260.025, 330.601 259.985 C 323.558 259.958, 323.540 259.917, 323.158 242.397 C 322.969 233.774, 323.102 224.806, 323.452 222.469 L 324.089 218.221 331.055 217.827 C 340.418 217.298, 342.952 214.936, 343.898 205.859 C 344.263 202.362, 344.911 198.938, 345.339 198.250 C 345.861 197.413, 348.864 197, 354.437 197 C 359.892 197, 363.099 197.430, 363.754 198.250 C 364.304 198.938, 365.076 202.168, 365.471 205.429 C 366.615 214.881, 369.839 218, 378.465 218 C 386.409 218, 386 216.861, 386 239 C 386 261.037, 386.355 260, 378.819 260 C 370.853 260, 366 264.195, 366 271.082 C 366 277.252, 370.939 281, 379.067 281 C 385.274 281, 386 281.643, 386 287.139 C 386 293.003, 388.057 298.425, 390.850 299.920 C 393.407 301.288, 399.541 301.316, 402.055 299.970 C 404.854 298.472, 407 293.705, 407 288.984 C 407 281.054, 407.116 281, 424.067 281 C 444.844 281, 449 278.952, 449 268.712 C 449 261.422, 450.138 260, 455.970 260 C 462.559 260, 465.603 258.683, 468.047 254.775 C 470.626 250.652, 470.041 245.586, 466.586 242.132 C 464.694 240.240, 462.530 239.465, 457.410 238.849 C 453.724 238.405, 450.437 237.771, 450.105 237.440 C 449.772 237.108, 449.368 229.786, 449.207 221.168 C 449.046 212.551, 448.471 204.363, 447.928 202.972 C 446.499 199.311, 443.346 197.693, 436.131 196.918 C 432.499 196.528, 429.390 195.646, 428.897 194.867 C 428.420 194.115, 428.024 191.145, 428.015 188.266 C 428.003 183.909, 427.511 182.484, 425.084 179.766 L 422.169 176.500 405.334 176.202 C 385.987 175.860, 386 175.866, 386 167.325 C 386 162.890, 385.527 161.502, 383.083 158.766 L 380.165 155.500 334.833 155.269 C 299.676 155.090, 288.993 155.324, 287.241 156.309 M 622.241 156.325 C 618.587 158.355, 617.253 161.127, 616.487 168.281 C 615.869 174.044, 615.456 175.089, 613.632 175.493 C 612.460 175.753, 604.599 176.086, 596.165 176.233 L 580.831 176.500 578.004 179.667 C 575.772 182.166, 575.031 184.201, 574.482 189.328 C 573.707 196.563, 573.227 196.961, 565.235 196.986 C 561.785 196.997, 560.257 197.653, 557.235 200.421 L 553.500 203.843 553.167 220.813 L 552.835 237.783 549.792 238.392 C 548.119 238.726, 545.427 239, 543.809 239 C 540.229 239, 537.075 240.524, 534.772 243.367 C 533.238 245.261, 533.044 248.303, 533.044 270.500 C 533.044 292.697, 533.238 295.739, 534.772 297.633 C 537.377 300.849, 540.827 302.255, 544.445 301.576 C 549.610 300.607, 552.146 297.078, 552.904 289.804 C 553.265 286.337, 553.911 282.938, 554.339 282.250 C 554.906 281.340, 559.195 281, 570.091 281 C 586.995 281, 590.906 280.016, 593.434 275.128 C 597.756 266.769, 592.487 260.025, 581.601 259.985 C 574.608 259.959, 574.541 259.810, 574.153 243.391 C 573.962 235.314, 574.101 226.347, 574.461 223.463 L 575.117 218.219 582.069 217.826 C 591.516 217.292, 593.951 214.965, 594.927 205.536 C 595.351 201.443, 596.177 198.500, 597.059 197.942 C 598.776 196.856, 613.021 196.713, 614.606 197.765 C 615.214 198.169, 616.031 201.373, 616.421 204.884 C 617.523 214.814, 620.692 218, 629.465 218 C 637.411 218, 637 216.851, 637 239.088 C 637 261.686, 638.032 259.370, 627.532 260.343 C 621.265 260.924, 617 265.058, 617 270.551 C 617 277.257, 621.681 281, 630.067 281 C 636.274 281, 637 281.643, 637 287.139 C 637 293.003, 639.057 298.425, 641.850 299.920 C 644.407 301.288, 650.541 301.316, 653.055 299.970 C 655.722 298.543, 658 293.772, 658 289.615 C 658 287.698, 658.439 284.976, 658.975 283.565 C 659.840 281.292, 660.509 281, 664.868 281 C 670.877 281, 671 280.753, 671.001 268.668 L 671.001 259.500 666.251 259.781 C 658.566 260.235, 658.546 260.192, 658.158 242.397 C 657.969 233.774, 658.109 224.757, 658.469 222.359 L 659.123 218 664.561 218 L 670 218 670 186.500 L 670 155 647.250 155.035 C 630.933 155.061, 623.861 155.426, 622.241 156.325 M 14.381 219.858 C 10.099 222.540, 9 226.485, 9 239.181 C 9 255.173, 11.131 259, 20.033 259 C 23.402 259, 24.752 258.407, 27.099 255.894 L 30 252.788 30 238.910 C 30 225.176, 29.971 225, 27.250 221.981 C 23.665 218.004, 18.659 217.178, 14.381 219.858 M 266.500 219.381 C 261.660 221.609, 260.622 224.380, 260.179 236.253 C 259.959 242.167, 260.083 248.629, 260.455 250.612 C 262.016 258.934, 272.094 262.059, 278.077 256.077 L 281 253.154 281 239.093 C 281 225.152, 280.977 225.006, 278.250 222.013 C 274.997 218.443, 270.653 217.470, 266.500 219.381 M 349.381 219.858 C 345.099 222.540, 344 226.485, 344 239.181 C 344 255.173, 346.131 259, 355.033 259 C 358.402 259, 359.752 258.407, 362.099 255.894 L 365 252.788 365 238.910 C 365 225.176, 364.971 225, 362.250 221.981 C 358.665 218.004, 353.659 217.178, 349.381 219.858 M 601.500 219.381 C 596.660 221.609, 595.622 224.380, 595.179 236.253 C 594.959 242.167, 595.083 248.629, 595.455 250.612 C 597.016 258.934, 607.094 262.059, 613.077 256.077 L 616 253.154 616 239.093 C 616 225.152, 615.977 225.006, 613.250 222.013 C 609.997 218.443, 605.653 217.470, 601.500 219.381 M 1 270.500 C 1 276.442, 1.392 280, 2.045 280 C 3.781 280, 7.875 275.346, 8.568 272.586 C 9.802 267.667, 6.310 261, 2.500 261 C 1.272 261, 1 262.722, 1 270.500 M 16.500 281.954 C 11.984 283.822, 9.645 287.758, 9.184 294.264 C 8.698 301.118, 8.050 301.962, 3.250 301.985 L 0 302 0 312.500 L 0 323 2.918 323 C 9.188 323, 9 322.350, 9 343.990 C 9 363.654, 8.987 363.770, 6.750 364.370 C 5.512 364.701, 3.488 364.979, 2.250 364.986 L 0 365 0 396.500 L 0 428 21.250 427.996 C 40.724 427.993, 42.774 427.826, 45.775 425.996 C 49.529 423.707, 51 420.575, 51 414.869 C 51 407.068, 51.148 407, 68.067 407 C 84.997 407, 88.905 406.018, 91.434 401.128 C 92.295 399.462, 93 395.917, 93 393.250 C 93 390.582, 93.540 387.860, 94.200 387.200 C 94.860 386.540, 97.582 386, 100.250 386 C 102.917 386, 106.419 385.317, 108.033 384.483 C 113.156 381.834, 114 378.721, 114 362.484 C 114 354.321, 114.457 347.015, 115.035 345.934 C 115.847 344.417, 117.151 344, 121.085 344 C 127.232 344, 131.463 341.939, 133.533 337.936 C 134.855 335.379, 135.053 331.148, 134.800 310.869 L 134.500 286.833 131.234 283.916 C 123.071 276.627, 114.124 283.281, 114.024 296.715 C 114.008 298.853, 113.352 300.276, 112.066 300.965 C 110.998 301.536, 103.896 302, 96.215 302 C 81.107 302, 76.972 302.867, 74.566 306.540 C 72.757 309.300, 72.510 315.216, 74.080 318.150 C 75.485 320.775, 80.902 323, 85.886 323 C 93.344 323, 93 321.985, 93 343.982 L 93 363.750 89.875 364.375 C 88.156 364.719, 85.031 365, 82.931 365 C 76.646 365, 73.886 368.211, 72.553 377.070 L 71.443 384.454 66.971 385.252 C 61.710 386.191, 52.815 385.242, 51.765 383.629 C 51.361 383.008, 51.024 380.145, 51.015 377.266 C 51.003 372.942, 50.507 371.479, 48.163 368.857 C 45.718 366.120, 44.387 365.569, 38.518 364.862 C 34.773 364.411, 31.437 363.771, 31.105 363.440 C 29.989 362.328, 29.806 328.616, 30.900 325.750 C 31.834 323.306, 32.457 323, 36.507 323 C 42.675 323, 47.540 320.790, 49.434 317.128 C 53.704 308.870, 48.355 302.025, 37.601 301.985 C 31.893 301.963, 31.025 301.114, 30.391 294.925 C 29.594 287.148, 28.263 284.353, 24.507 282.570 C 20.849 280.835, 19.464 280.728, 16.500 281.954 M 267.500 281.954 C 263.095 283.776, 260.849 287.565, 260.267 294.156 C 259.958 297.645, 259.209 300.831, 258.603 301.235 C 257.996 301.639, 250.930 301.976, 242.899 301.985 C 234.869 301.993, 226.911 302.484, 225.215 303.075 C 220.899 304.579, 218.826 308.296, 218.242 315.578 C 217.677 322.617, 217.238 322.962, 208.827 322.986 C 199.156 323.015, 194.487 333.037, 200.835 340.141 C 203.353 342.960, 204.440 343.379, 210.585 343.907 L 217.500 344.500 218 361.500 C 218.654 383.745, 219.181 384.662, 232 385.881 L 238.500 386.500 239.500 393.500 C 241.287 406.011, 241.926 406.372, 263.402 407 L 280.500 407.500 281.500 414.739 C 282.303 420.550, 283.047 422.522, 285.272 424.739 L 288.044 427.500 332.772 427.763 C 376.093 428.018, 377.603 427.963, 380.775 426.013 C 384.531 423.703, 386 420.570, 386 414.869 C 386 407.068, 386.148 407, 403.067 407 C 419.997 407, 423.905 406.018, 426.434 401.128 C 427.295 399.462, 428 395.917, 428 393.250 C 428 390.582, 428.540 387.860, 429.200 387.200 C 429.860 386.540, 432.582 386, 435.250 386 C 437.917 386, 441.419 385.317, 443.033 384.483 C 448.156 381.834, 449 378.721, 449 362.484 C 449 354.321, 449.457 347.015, 450.035 345.934 C 450.847 344.417, 452.151 344, 456.085 344 C 462.232 344, 466.463 341.939, 468.533 337.936 C 469.855 335.379, 470.053 331.148, 469.800 310.869 L 469.500 286.833 466.234 283.916 C 458.071 276.627, 449.124 283.281, 449.024 296.715 C 449.008 298.853, 448.352 300.276, 447.066 300.965 C 445.998 301.536, 438.896 302, 431.215 302 C 416.107 302, 411.972 302.867, 409.566 306.540 C 407.757 309.300, 407.510 315.216, 409.080 318.150 C 410.485 320.775, 415.902 323, 420.886 323 C 428.344 323, 428 321.985, 428 343.982 L 428 363.750 424.875 364.375 C 423.156 364.719, 420.031 365, 417.931 365 C 411.646 365, 408.886 368.211, 407.553 377.070 L 406.443 384.454 401.971 385.252 C 396.710 386.191, 387.815 385.242, 386.765 383.629 C 386.361 383.008, 386.024 380.145, 386.015 377.266 C 386.003 372.942, 385.507 371.479, 383.163 368.857 C 380.718 366.120, 379.387 365.569, 373.518 364.862 C 369.773 364.411, 366.437 363.771, 366.105 363.440 C 364.989 362.328, 364.806 328.616, 365.900 325.750 C 366.834 323.306, 367.457 323, 371.507 323 C 377.675 323, 382.540 320.790, 384.434 317.128 C 388.704 308.870, 383.355 302.025, 372.601 301.985 C 366.893 301.963, 366.025 301.114, 365.391 294.925 C 364.586 287.063, 363.272 284.357, 359.361 282.501 C 354.947 280.406, 351.116 281.226, 347.454 285.048 C 345.122 287.482, 344.550 289.090, 344.185 294.249 C 343.941 297.687, 343.238 300.831, 342.621 301.235 C 342.004 301.639, 339.543 301.976, 337.151 301.985 C 328.838 302.014, 324 306.096, 324 313.082 C 324 319.252, 328.939 323, 337.067 323 C 344.317 323, 344 322.041, 344 343.990 C 344 366.474, 344.661 364.958, 334.856 364.986 C 331.166 364.997, 329.598 365.573, 327.229 367.786 C 324.660 370.186, 324.147 371.557, 323.534 377.658 L 322.823 384.742 317.802 385.337 C 311.794 386.049, 303.788 385.122, 302.765 383.596 C 302.361 382.993, 302.024 380.145, 302.015 377.266 C 302.003 372.942, 301.507 371.479, 299.163 368.857 C 296.718 366.120, 295.387 365.569, 289.518 364.862 C 285.773 364.411, 282.437 363.771, 282.105 363.440 C 281.098 362.436, 280.770 330.668, 281.728 326.958 C 282.596 323.599, 282.791 323.484, 288.561 322.922 C 295.755 322.223, 298.502 320.864, 300.490 317.020 C 302.387 313.351, 302.400 310.674, 300.537 307.072 C 298.777 303.668, 297.387 303.047, 289.170 301.989 C 285.689 301.541, 282.624 300.957, 282.359 300.692 C 282.094 300.427, 281.645 297.576, 281.361 294.355 C 280.703 286.881, 279.492 284.462, 275.454 282.545 C 271.849 280.834, 270.457 280.731, 267.500 281.954 M 602.500 281.954 C 598.095 283.776, 595.849 287.565, 595.267 294.156 C 594.958 297.645, 594.209 300.831, 593.603 301.235 C 592.996 301.639, 585.930 301.976, 577.899 301.985 C 569.869 301.993, 561.911 302.484, 560.215 303.075 C 555.899 304.579, 553.826 308.296, 553.242 315.578 C 552.677 322.617, 552.238 322.962, 543.827 322.986 C 534.156 323.015, 529.487 333.037, 535.835 340.141 C 538.353 342.960, 539.440 343.379, 545.585 343.907 L 552.500 344.500 553 361.500 C 553.654 383.745, 554.181 384.662, 567 385.881 L 573.500 386.500 574.500 393.500 C 576.287 406.011, 576.926 406.372, 598.402 407 L 615.500 407.500 616.500 414.739 C 617.303 420.548, 618.047 422.523, 620.271 424.739 L 623.042 427.500 646.521 427.801 L 670 428.103 670 396.551 L 670 365 667.606 365 C 666.289 365, 663.869 366.254, 662.229 367.786 C 659.660 370.186, 659.147 371.557, 658.534 377.658 L 657.823 384.742 652.802 385.337 C 646.794 386.049, 638.788 385.122, 637.765 383.596 C 637.361 382.993, 637.024 380.145, 637.015 377.266 C 637.003 372.942, 636.507 371.479, 634.163 368.857 C 631.718 366.120, 630.387 365.569, 624.518 364.862 C 620.773 364.411, 617.437 363.771, 617.105 363.440 C 616.098 362.436, 615.770 330.668, 616.728 326.958 C 617.596 323.599, 617.791 323.484, 623.561 322.922 C 630.755 322.223, 633.502 320.864, 635.490 317.020 C 637.387 313.351, 637.400 310.674, 635.537 307.072 C 633.777 303.668, 632.387 303.047, 624.170 301.989 C 620.689 301.541, 617.624 300.957, 617.359 300.692 C 617.094 300.427, 616.645 297.576, 616.361 294.355 C 615.703 286.881, 614.492 284.462, 610.454 282.545 C 606.849 280.834, 605.457 280.731, 602.500 281.954 M 664.383 303.583 C 656.766 307.341, 657.303 319.167, 665.215 321.925 C 666.911 322.516, 668.681 323, 669.149 323 C 669.617 323, 670 318.275, 670 312.500 C 670 301.062, 669.880 300.871, 664.383 303.583 M 57.321 324.613 C 52.459 327.011, 51 331.204, 51 342.776 C 51 355.203, 51.616 358.343, 54.647 361.374 C 57.687 364.414, 61.626 365.183, 65.619 363.515 C 71.294 361.143, 72 359.021, 72 344.325 C 72 329.484, 71.255 326.823, 66.460 324.548 C 62.424 322.633, 61.321 322.641, 57.321 324.613 M 308.321 324.613 C 302.959 327.257, 301.748 331.367, 302.150 345.546 C 302.490 357.511, 302.583 357.956, 305.342 360.836 C 308.761 364.403, 312.415 365.271, 316.619 363.515 C 322.302 361.140, 323 359.030, 323 344.228 C 323 329.102, 322.027 325.902, 316.881 324.108 C 312.803 322.687, 312.149 322.725, 308.321 324.613 M 392.321 324.613 C 387.459 327.011, 386 331.204, 386 342.776 C 386 355.203, 386.616 358.343, 389.647 361.374 C 392.687 364.414, 396.626 365.183, 400.619 363.515 C 406.294 361.143, 407 359.021, 407 344.325 C 407 329.484, 406.255 326.823, 401.460 324.548 C 397.424 322.633, 396.321 322.641, 392.321 324.613 M 643.321 324.613 C 637.959 327.257, 636.748 331.367, 637.150 345.546 C 637.490 357.511, 637.583 357.956, 640.342 360.836 C 643.761 364.403, 647.415 365.271, 651.619 363.515 C 657.302 361.140, 658 359.030, 658 344.228 C 658 329.102, 657.027 325.902, 651.881 324.108 C 647.803 322.687, 647.149 322.725, 643.321 324.613 M 0.473 518 C 0.473 556.225, 0.598 571.862, 0.750 552.750 C 0.902 533.637, 0.902 502.362, 0.750 483.250 C 0.598 464.137, 0.473 479.775, 0.473 518 M 120.241 450.309 C 116.581 452.368, 115.252 455.133, 114.487 462.281 C 113.869 468.044, 113.456 469.089, 111.632 469.493 C 110.460 469.753, 102.599 470.086, 94.165 470.233 L 78.831 470.500 76.004 473.667 C 73.772 476.166, 73.031 478.201, 72.482 483.328 C 71.707 490.563, 71.227 490.961, 63.235 490.986 C 59.785 490.997, 58.257 491.653, 55.235 494.421 L 51.500 497.843 51.167 514.813 L 50.835 531.783 47.792 532.392 C 46.119 532.726, 43.427 533, 41.809 533 C 38.229 533, 35.075 534.524, 32.772 537.367 C 31.245 539.252, 31.042 542.258, 31.022 563.250 L 31 587 41 587 L 51 587 51 582.934 C 51 575.060, 51.130 575, 68.067 575 C 84.997 575, 88.905 574.018, 91.434 569.128 C 95.756 560.769, 90.487 554.025, 79.601 553.985 C 72.608 553.959, 72.541 553.810, 72.153 537.391 C 71.962 529.314, 72.101 520.347, 72.461 517.463 L 73.117 512.219 80.069 511.826 C 89.516 511.292, 91.951 508.965, 92.927 499.536 C 93.351 495.443, 94.177 492.500, 95.059 491.942 C 96.776 490.856, 111.021 490.713, 112.606 491.765 C 113.214 492.169, 114.031 495.373, 114.421 498.884 C 115.523 508.814, 118.692 512, 127.465 512 C 135.411 512, 135 510.851, 135 533.088 C 135 555.686, 136.032 553.370, 125.532 554.343 C 119.265 554.924, 115 559.058, 115 564.551 C 115 571.257, 119.681 575, 128.067 575 C 134.373 575, 135 575.597, 135 581.607 L 135 587 145.500 587 L 156 587 156 583.565 C 156 581.676, 156.439 578.976, 156.975 577.565 C 157.825 575.330, 158.536 575, 162.507 575 C 168.675 575, 173.540 572.790, 175.434 569.128 C 179.756 560.769, 174.487 554.025, 163.601 553.985 C 156.558 553.958, 156.540 553.917, 156.158 536.397 C 155.969 527.774, 156.102 518.806, 156.452 516.469 L 157.089 512.221 164.055 511.827 C 173.418 511.298, 175.952 508.936, 176.898 499.859 C 177.263 496.362, 177.911 492.938, 178.339 492.250 C 178.861 491.413, 181.864 491, 187.437 491 C 192.892 491, 196.099 491.430, 196.754 492.250 C 197.304 492.938, 198.076 496.168, 198.471 499.429 C 199.615 508.881, 202.839 512, 211.465 512 C 219.409 512, 219 510.861, 219 533 C 219 555.037, 219.355 554, 211.819 554 C 203.853 554, 199 558.195, 199 565.082 C 199 571.252, 203.939 575, 212.067 575 C 218.373 575, 219 575.597, 219 581.607 L 219 587 229.500 587 L 240 587 240 582.934 C 240 575.060, 240.130 575, 257.067 575 C 277.844 575, 282 572.952, 282 562.712 C 282 555.422, 283.138 554, 288.970 554 C 295.559 554, 298.603 552.683, 301.047 548.775 C 303.626 544.652, 303.041 539.586, 299.586 536.132 C 297.694 534.240, 295.530 533.465, 290.410 532.849 C 286.724 532.405, 283.437 531.771, 283.105 531.440 C 282.772 531.108, 282.368 523.786, 282.207 515.168 C 282.046 506.551, 281.471 498.363, 280.928 496.972 C 279.499 493.311, 276.346 491.693, 269.131 490.918 C 265.499 490.528, 262.390 489.646, 261.897 488.867 C 261.420 488.115, 261.024 485.145, 261.015 482.266 C 261.003 477.909, 260.511 476.484, 258.084 473.766 L 255.169 470.500 238.334 470.202 C 218.987 469.860, 219 469.866, 219 461.325 C 219 456.890, 218.527 455.502, 216.083 452.766 L 213.165 449.500 167.833 449.269 C 132.676 449.090, 121.993 449.324, 120.241 450.309 M 455.241 450.309 C 451.581 452.368, 450.252 455.133, 449.487 462.281 C 448.869 468.044, 448.456 469.089, 446.632 469.493 C 445.460 469.753, 437.599 470.086, 429.165 470.233 L 413.831 470.500 411.004 473.667 C 408.772 476.166, 408.031 478.201, 407.482 483.328 C 406.707 490.563, 406.227 490.961, 398.235 490.986 C 394.785 490.997, 393.257 491.653, 390.235 494.421 L 386.500 497.843 386.167 514.813 L 385.835 531.783 382.792 532.392 C 381.119 532.726, 378.427 533, 376.809 533 C 373.229 533, 370.075 534.524, 367.772 537.367 C 366.245 539.252, 366.042 542.258, 366.022 563.250 L 366 587 376 587 L 386 587 386 582.934 C 386 575.060, 386.130 575, 403.067 575 C 419.997 575, 423.905 574.018, 426.434 569.128 C 430.756 560.769, 425.487 554.025, 414.601 553.985 C 407.608 553.959, 407.541 553.810, 407.153 537.391 C 406.962 529.314, 407.101 520.347, 407.461 517.463 L 408.117 512.219 415.069 511.826 C 424.516 511.292, 426.951 508.965, 427.927 499.536 C 428.351 495.443, 429.177 492.500, 430.059 491.942 C 431.776 490.856, 446.021 490.713, 447.606 491.765 C 448.214 492.169, 449.031 495.373, 449.421 498.884 C 450.523 508.814, 453.692 512, 462.465 512 C 470.411 512, 470 510.851, 470 533.088 C 470 555.686, 471.032 553.370, 460.532 554.343 C 454.265 554.924, 450 559.058, 450 564.551 C 450 571.257, 454.681 575, 463.067 575 C 469.373 575, 470 575.597, 470 581.607 L 470 587 480.500 587 L 491 587 491 583.565 C 491 581.676, 491.439 578.976, 491.975 577.565 C 492.825 575.330, 493.536 575, 497.507 575 C 503.675 575, 508.540 572.790, 510.434 569.128 C 514.756 560.769, 509.487 554.025, 498.601 553.985 C 491.558 553.958, 491.540 553.917, 491.158 536.397 C 490.969 527.774, 491.102 518.806, 491.452 516.469 L 492.089 512.221 499.055 511.827 C 508.418 511.298, 510.952 508.936, 511.898 499.859 C 512.263 496.362, 512.911 492.938, 513.339 492.250 C 513.861 491.413, 516.864 491, 522.437 491 C 527.892 491, 531.099 491.430, 531.754 492.250 C 532.304 492.938, 533.076 496.168, 533.471 499.429 C 534.615 508.881, 537.839 512, 546.465 512 C 554.409 512, 554 510.861, 554 533 C 554 555.037, 554.355 554, 546.819 554 C 538.853 554, 534 558.195, 534 565.082 C 534 571.252, 538.939 575, 547.067 575 C 553.373 575, 554 575.597, 554 581.607 L 554 587 564.500 587 L 575 587 575 582.934 C 575 575.060, 575.130 575, 592.067 575 C 612.844 575, 617 572.952, 617 562.712 C 617 555.422, 618.138 554, 623.970 554 C 630.559 554, 633.603 552.683, 636.047 548.775 C 638.626 544.652, 638.041 539.586, 634.586 536.132 C 632.694 534.240, 630.530 533.465, 625.410 532.849 C 621.724 532.405, 618.437 531.771, 618.105 531.440 C 617.772 531.108, 617.368 523.786, 617.207 515.168 C 617.046 506.551, 616.471 498.363, 615.928 496.972 C 614.499 493.311, 611.346 491.693, 604.131 490.918 C 600.499 490.528, 597.390 489.646, 596.897 488.867 C 596.420 488.115, 596.024 485.145, 596.015 482.266 C 596.003 477.909, 595.511 476.484, 593.084 473.766 L 590.169 470.500 573.334 470.202 C 553.987 469.860, 554 469.866, 554 461.325 C 554 456.890, 553.527 455.502, 551.083 452.766 L 548.165 449.500 502.833 449.269 C 467.676 449.090, 456.993 449.324, 455.241 450.309 M 99.500 513.381 C 94.660 515.609, 93.622 518.380, 93.179 530.253 C 92.959 536.167, 93.083 542.629, 93.455 544.612 C 95.016 552.934, 105.094 556.059, 111.077 550.077 L 114 547.154 114 533.093 C 114 519.152, 113.977 519.006, 111.250 516.013 C 107.997 512.443, 103.653 511.470, 99.500 513.381 M 182.381 513.858 C 178.099 516.540, 177 520.485, 177 533.181 C 177 549.173, 179.131 553, 188.033 553 C 191.402 553, 192.752 552.407, 195.099 549.894 L 198 546.788 198 532.910 C 198 519.176, 197.971 519, 195.250 515.981 C 191.665 512.004, 186.659 511.178, 182.381 513.858 M 434.500 513.381 C 429.660 515.609, 428.622 518.380, 428.179 530.253 C 427.959 536.167, 428.083 542.629, 428.455 544.612 C 430.016 552.934, 440.094 556.059, 446.077 550.077 L 449 547.154 449 533.093 C 449 519.152, 448.977 519.006, 446.250 516.013 C 442.997 512.443, 438.653 511.470, 434.500 513.381 M 517.381 513.858 C 513.099 516.540, 512 520.485, 512 533.181 C 512 549.173, 514.131 553, 523.033 553 C 526.402 553, 527.752 552.407, 530.099 549.894 L 533 546.788 533 532.910 C 533 519.176, 532.971 519, 530.250 515.981 C 526.665 512.004, 521.659 511.178, 517.381 513.858 M 100.500 575.954 C 97.618 577.146, 94.366 581.063, 93.612 584.250 L 92.962 587 103.481 587 L 114 587 114 584.189 C 114 581.020, 111.031 577.342, 107.339 575.939 C 104.433 574.834, 103.201 574.837, 100.500 575.954 M 184.500 575.954 C 181.582 577.161, 178.250 581.091, 177.466 584.250 L 176.783 587 187.392 587 C 197.248 587, 198 586.862, 198 585.047 C 198 581.528, 195.782 578.124, 192.460 576.548 C 188.849 574.834, 187.458 574.731, 184.500 575.954 M 286.699 577.255 C 285.056 578.572, 283.550 581.050, 283.055 583.250 L 282.211 587 292.730 587 L 303.250 587 302.627 583.750 C 302.285 581.962, 300.647 579.263, 298.987 577.750 C 295.225 574.322, 290.591 574.136, 286.699 577.255 M 435.500 575.954 C 432.618 577.146, 429.366 581.063, 428.612 584.250 L 427.962 587 438.481 587 L 449 587 449 584.189 C 449 581.020, 446.031 577.342, 442.339 575.939 C 439.433 574.834, 438.201 574.837, 435.500 575.954 M 519.500 575.954 C 516.582 577.161, 513.250 581.091, 512.466 584.250 L 511.783 587 522.392 587 C 532.248 587, 533 586.862, 533 585.047 C 533 581.528, 530.782 578.124, 527.460 576.548 C 523.849 574.834, 522.458 574.731, 519.500 575.954 M 621.699 577.255 C 620.056 578.572, 618.550 581.050, 618.055 583.250 L 617.211 587 627.730 587 L 638.250 587 637.627 583.750 C 637.285 581.962, 635.647 579.263, 633.987 577.750 C 630.225 574.322, 625.591 574.136, 621.699 577.255" stroke="none" fill="var(--light)" fill-rule="evenodd"/><path d="M 9.754 16.750 C 9.305 47.268, 9.369 48.993, 11 50.022 C 11.825 50.543, 14.383 50.976, 16.685 50.985 C 21.894 51.004, 25.199 52.224, 27.904 55.127 C 29.828 57.192, 30 58.543, 30 71.564 C 30 79.366, 30.271 87.103, 30.601 88.757 C 31.171 91.603, 31.529 91.802, 37.288 92.453 C 43.369 93.141, 48.261 94.995, 49.565 97.105 C 49.945 97.720, 50.599 101.349, 51.019 105.169 C 51.438 108.989, 52.030 112.363, 52.334 112.668 C 52.639 112.972, 55.868 113.460, 59.509 113.753 C 65.031 114.196, 66.594 114.748, 68.923 117.077 C 71.252 119.406, 71.804 120.969, 72.247 126.491 C 72.540 130.132, 73.063 133.396, 73.409 133.743 C 73.756 134.090, 81.653 134.627, 90.958 134.937 C 107.808 135.498, 107.887 135.511, 110.805 138.311 C 113.294 140.697, 113.815 142.100, 114.257 147.617 C 114.544 151.189, 115.091 154.424, 115.472 154.806 C 116.445 155.781, 205.192 156.201, 212.500 155.265 L 218.500 154.497 219.069 147.999 C 220.182 135.290, 222.515 134, 244.382 134 C 262.044 134, 260.384 134.914, 261.327 124.674 C 262 117.363, 265.387 114.329, 273.874 113.434 C 277.518 113.049, 280.831 112.232, 281.235 111.617 C 281.639 111.003, 281.976 108.131, 281.985 105.235 C 281.998 100.667, 282.444 99.487, 285.355 96.310 C 288.412 92.974, 289.279 92.608, 295.105 92.195 C 298.622 91.946, 301.831 91.238, 302.235 90.621 C 302.639 90.004, 302.976 82.818, 302.985 74.651 C 303.006 53.860, 304.543 51.164, 317 50.071 L 323.500 49.500 323.767 24.750 L 324.035 0 313.517 0 L 303 0 303 21.050 C 303 44.249, 302.494 46.659, 297.033 49.483 C 295.419 50.317, 291.843 51, 289.085 51 C 285.151 51, 283.847 51.417, 283.035 52.934 C 282.457 54.015, 282 61.321, 282 69.484 C 282 85.721, 281.156 88.834, 276.033 91.483 C 274.419 92.317, 270.917 93, 268.250 93 C 265.582 93, 262.860 93.540, 262.200 94.200 C 261.540 94.860, 261 97.582, 261 100.250 C 261 102.917, 260.295 106.462, 259.434 108.128 C 256.905 113.018, 252.997 114, 236.067 114 C 219.148 114, 219 114.068, 219 121.869 C 219 127.570, 217.531 130.703, 213.775 133.013 C 210.603 134.963, 209.093 135.018, 165.772 134.763 L 121.044 134.500 118.272 131.739 C 116.047 129.522, 115.303 127.550, 114.500 121.739 L 113.500 114.500 96.402 114 C 74.926 113.372, 74.287 113.011, 72.500 100.500 L 71.500 93.500 65 92.881 C 57.025 92.123, 55.608 91.551, 53.310 88.166 C 51.798 85.938, 51.418 82.706, 51 68.500 L 50.500 51.500 43.585 50.907 C 37.440 50.379, 36.353 49.960, 33.835 47.141 C 27.487 40.037, 32.156 30.015, 41.827 29.986 C 50.238 29.962, 50.677 29.617, 51.242 22.578 C 51.826 15.296, 53.899 11.579, 58.215 10.075 C 59.911 9.484, 67.719 9, 75.567 9 C 83.415 9, 90.548 8.727, 91.418 8.393 C 92.486 7.983, 93 6.520, 93 3.893 L 93 0 71.969 0 C 52.841 0, 50.881 0.158, 50.320 1.750 C 47.331 10.217, 35.398 11.039, 31.850 3.023 L 30.512 -0 20.256 -0 L 10 0 9.754 16.750 M 114.478 3.750 C 114.863 5.813, 115.327 7.652, 115.510 7.837 C 115.692 8.022, 118.689 8.541, 122.170 8.989 C 130.387 10.047, 131.777 10.668, 133.537 14.072 C 135.400 17.674, 135.387 20.351, 133.490 24.020 C 131.502 27.864, 128.755 29.223, 121.561 29.922 C 115.791 30.484, 115.596 30.599, 114.728 33.958 C 113.770 37.668, 114.098 69.436, 115.105 70.440 C 115.437 70.771, 118.773 71.411, 122.518 71.862 C 128.387 72.569, 129.718 73.120, 132.163 75.857 C 134.507 78.479, 135.003 79.942, 135.015 84.266 C 135.024 87.145, 135.361 89.993, 135.765 90.596 C 136.788 92.122, 144.794 93.049, 150.802 92.337 L 155.823 91.742 156.534 84.658 C 157.147 78.557, 157.660 77.186, 160.229 74.786 C 162.598 72.573, 164.166 71.997, 167.856 71.986 C 177.661 71.958, 177 73.474, 177 50.990 C 177 29.041, 177.317 30, 170.067 30 C 161.939 30, 157 26.252, 157 20.082 C 157 13.195, 161.853 9, 169.819 9 C 176.012 9, 177 8.297, 177 3.893 L 177 0 166.526 0 L 156.051 0 154.515 2.970 C 152.566 6.740, 150.187 8, 145.020 8 C 140.662 8, 136 4.664, 136 1.545 C 136 0.244, 134.244 -0, 124.889 -0 L 113.777 -0 114.478 3.750 M 198.480 3.748 C 199.328 8.266, 200.278 8.965, 205.601 8.985 C 211.497 9.007, 215.355 10.638, 217.301 13.933 C 222.103 22.062, 215.782 30, 204.507 30 C 200.457 30, 199.834 30.306, 198.900 32.750 C 197.806 35.616, 197.989 69.328, 199.105 70.440 C 199.437 70.771, 202.773 71.411, 206.518 71.862 C 212.387 72.569, 213.718 73.120, 216.163 75.857 C 218.507 78.479, 219.003 79.942, 219.015 84.266 C 219.024 87.145, 219.361 90.008, 219.765 90.629 C 220.815 92.242, 229.710 93.191, 234.971 92.252 L 239.443 91.454 240.553 84.070 C 241.886 75.211, 244.646 72, 250.931 72 C 253.031 72, 256.156 71.719, 257.875 71.375 L 261 70.750 261 50.982 C 261 28.985, 261.344 30, 253.886 30 C 248.902 30, 243.485 27.775, 242.080 25.150 C 240.510 22.216, 240.757 16.300, 242.566 13.540 C 244.972 9.867, 249.107 9, 264.215 9 C 271.896 9, 278.998 8.536, 280.066 7.965 C 281.407 7.247, 282 5.867, 282 3.465 L 282 0 261.026 0 L 240.051 0 238.515 2.970 C 236.566 6.740, 234.187 8, 229.020 8 C 224.662 8, 220 4.664, 220 1.545 C 220 0.244, 218.244 -0, 208.889 -0 L 197.777 -0 198.480 3.748 M 344.754 16.750 C 344.305 47.268, 344.369 48.993, 346 50.022 C 346.825 50.543, 349.383 50.976, 351.685 50.985 C 356.894 51.004, 360.199 52.224, 362.904 55.127 C 364.828 57.192, 365 58.543, 365 71.564 C 365 79.366, 365.271 87.103, 365.601 88.757 C 366.171 91.603, 366.529 91.802, 372.288 92.453 C 378.369 93.141, 383.261 94.995, 384.565 97.105 C 384.945 97.720, 385.599 101.349, 386.019 105.169 C 386.438 108.989, 387.030 112.363, 387.334 112.668 C 387.639 112.972, 390.868 113.460, 394.509 113.753 C 400.031 114.196, 401.594 114.748, 403.923 117.077 C 406.252 119.406, 406.804 120.969, 407.247 126.491 C 407.540 130.132, 408.063 133.396, 408.409 133.743 C 408.756 134.090, 416.653 134.627, 425.958 134.937 C 442.808 135.498, 442.887 135.511, 445.805 138.311 C 448.294 140.697, 448.815 142.100, 449.257 147.617 C 449.544 151.189, 450.091 154.424, 450.472 154.806 C 451.445 155.781, 540.192 156.201, 547.500 155.265 L 553.500 154.497 554.069 147.999 C 555.182 135.290, 557.515 134, 579.382 134 C 597.044 134, 595.384 134.914, 596.327 124.674 C 597 117.363, 600.387 114.329, 608.874 113.434 C 612.518 113.049, 615.831 112.232, 616.235 111.617 C 616.639 111.003, 616.976 108.131, 616.985 105.235 C 616.998 100.667, 617.444 99.487, 620.355 96.310 C 623.412 92.974, 624.279 92.608, 630.105 92.195 C 633.622 91.946, 636.831 91.238, 637.235 90.621 C 637.639 90.004, 637.976 82.818, 637.985 74.651 C 638.006 53.860, 639.543 51.164, 652 50.071 L 658.500 49.500 658.767 24.750 L 659.035 0 648.517 0 L 638 0 638 21.050 C 638 44.249, 637.494 46.659, 632.033 49.483 C 630.419 50.317, 626.843 51, 624.085 51 C 620.151 51, 618.847 51.417, 618.035 52.934 C 617.457 54.015, 617 61.321, 617 69.484 C 617 85.721, 616.156 88.834, 611.033 91.483 C 609.419 92.317, 605.917 93, 603.250 93 C 600.582 93, 597.860 93.540, 597.200 94.200 C 596.540 94.860, 596 97.582, 596 100.250 C 596 102.917, 595.295 106.462, 594.434 108.128 C 591.905 113.018, 587.997 114, 571.067 114 C 554.148 114, 554 114.068, 554 121.869 C 554 127.570, 552.531 130.703, 548.775 133.013 C 545.603 134.963, 544.093 135.018, 500.772 134.763 L 456.044 134.500 453.272 131.739 C 451.047 129.522, 450.303 127.550, 449.500 121.739 L 448.500 114.500 431.402 114 C 409.926 113.372, 409.287 113.011, 407.500 100.500 L 406.500 93.500 400 92.881 C 392.025 92.123, 390.608 91.551, 388.310 88.166 C 386.798 85.938, 386.418 82.706, 386 68.500 L 385.500 51.500 378.585 50.907 C 372.440 50.379, 371.353 49.960, 368.835 47.141 C 362.487 40.037, 367.156 30.015, 376.827 29.986 C 385.238 29.962, 385.677 29.617, 386.242 22.578 C 386.826 15.296, 388.899 11.579, 393.215 10.075 C 394.911 9.484, 402.719 9, 410.567 9 C 418.415 9, 425.548 8.727, 426.418 8.393 C 427.486 7.983, 428 6.520, 428 3.893 L 428 0 406.969 0 C 387.841 0, 385.881 0.158, 385.320 1.750 C 382.331 10.217, 370.398 11.039, 366.850 3.023 L 365.512 -0 355.256 -0 L 345 0 344.754 16.750 M 449.478 3.750 C 449.863 5.813, 450.327 7.652, 450.510 7.837 C 450.692 8.022, 453.689 8.541, 457.170 8.989 C 465.387 10.047, 466.777 10.668, 468.537 14.072 C 470.400 17.674, 470.387 20.351, 468.490 24.020 C 466.502 27.864, 463.755 29.223, 456.561 29.922 C 450.791 30.484, 450.596 30.599, 449.728 33.958 C 448.770 37.668, 449.098 69.436, 450.105 70.440 C 450.437 70.771, 453.773 71.411, 457.518 71.862 C 463.387 72.569, 464.718 73.120, 467.163 75.857 C 469.507 78.479, 470.003 79.942, 470.015 84.266 C 470.024 87.145, 470.361 89.993, 470.765 90.596 C 471.788 92.122, 479.794 93.049, 485.802 92.337 L 490.823 91.742 491.534 84.658 C 492.147 78.557, 492.660 77.186, 495.229 74.786 C 497.598 72.573, 499.166 71.997, 502.856 71.986 C 512.661 71.958, 512 73.474, 512 50.990 C 512 29.041, 512.317 30, 505.067 30 C 496.939 30, 492 26.252, 492 20.082 C 492 13.195, 496.853 9, 504.819 9 C 511.012 9, 512 8.297, 512 3.893 L 512 0 501.526 0 L 491.051 0 489.515 2.970 C 487.566 6.740, 485.187 8, 480.020 8 C 475.662 8, 471 4.664, 471 1.545 C 471 0.244, 469.244 -0, 459.889 -0 L 448.777 -0 449.478 3.750 M 533.480 3.748 C 534.328 8.266, 535.278 8.965, 540.601 8.985 C 546.497 9.007, 550.355 10.638, 552.301 13.933 C 557.103 22.062, 550.782 30, 539.507 30 C 535.457 30, 534.834 30.306, 533.900 32.750 C 532.806 35.616, 532.989 69.328, 534.105 70.440 C 534.437 70.771, 537.773 71.411, 541.518 71.862 C 547.387 72.569, 548.718 73.120, 551.163 75.857 C 553.507 78.479, 554.003 79.942, 554.015 84.266 C 554.024 87.145, 554.361 90.008, 554.765 90.629 C 555.815 92.242, 564.710 93.191, 569.971 92.252 L 574.443 91.454 575.553 84.070 C 576.886 75.211, 579.646 72, 585.931 72 C 588.031 72, 591.156 71.719, 592.875 71.375 L 596 70.750 596 50.982 C 596 28.985, 596.344 30, 588.886 30 C 583.902 30, 578.485 27.775, 577.080 25.150 C 575.510 22.216, 575.757 16.300, 577.566 13.540 C 579.972 9.867, 584.107 9, 599.215 9 C 606.896 9, 613.998 8.536, 615.066 7.965 C 616.407 7.247, 617 5.867, 617 3.465 L 617 0 596.026 0 L 575.051 0 573.515 2.970 C 571.566 6.740, 569.187 8, 564.020 8 C 559.662 8, 555 4.664, 555 1.545 C 555 0.244, 553.244 -0, 543.889 -0 L 532.777 -0 533.480 3.748 M 141.321 31.613 C 135.959 34.257, 134.748 38.367, 135.150 52.546 C 135.490 64.511, 135.583 64.956, 138.342 67.836 C 141.761 71.403, 145.415 72.271, 149.619 70.515 C 155.302 68.140, 156 66.030, 156 51.228 C 156 36.102, 155.027 32.902, 149.881 31.108 C 145.803 29.687, 145.149 29.725, 141.321 31.613 M 225.321 31.613 C 220.459 34.011, 219 38.204, 219 49.776 C 219 62.203, 219.616 65.343, 222.647 68.374 C 225.687 71.414, 229.626 72.183, 233.619 70.515 C 239.294 68.143, 240 66.021, 240 51.325 C 240 36.484, 239.255 33.823, 234.460 31.548 C 230.424 29.633, 229.321 29.641, 225.321 31.613 M 476.321 31.613 C 470.959 34.257, 469.748 38.367, 470.150 52.546 C 470.490 64.511, 470.583 64.956, 473.342 67.836 C 476.761 71.403, 480.415 72.271, 484.619 70.515 C 490.302 68.140, 491 66.030, 491 51.228 C 491 36.102, 490.027 32.902, 484.881 31.108 C 480.803 29.687, 480.149 29.725, 476.321 31.613 M 560.321 31.613 C 555.459 34.011, 554 38.204, 554 49.776 C 554 62.203, 554.616 65.343, 557.647 68.374 C 560.687 71.414, 564.626 72.183, 568.619 70.515 C 574.294 68.143, 575 66.021, 575 51.325 C 575 36.484, 574.255 33.823, 569.460 31.548 C 565.424 29.633, 564.321 29.641, 560.321 31.613 M -0 144.447 L -0 154.894 22.584 155.197 L 45.168 155.500 48.084 158.766 C 50.527 161.502, 51 162.891, 51 167.325 C 51 175.866, 50.987 175.860, 70.334 176.202 L 87.169 176.500 90.084 179.766 C 92.511 182.484, 93.003 183.909, 93.015 188.266 C 93.024 191.145, 93.420 194.115, 93.897 194.867 C 94.390 195.646, 97.499 196.528, 101.131 196.918 C 108.346 197.693, 111.499 199.311, 112.928 202.972 C 113.471 204.363, 114.046 212.551, 114.207 221.168 C 114.368 229.786, 114.772 237.108, 115.105 237.440 C 115.437 237.771, 118.724 238.405, 122.410 238.849 C 127.530 239.465, 129.694 240.240, 131.586 242.132 C 135.041 245.586, 135.626 250.652, 133.047 254.775 C 130.603 258.683, 127.559 260, 120.970 260 C 115.138 260, 114 261.422, 114 268.712 C 114 278.952, 109.844 281, 89.067 281 C 72.116 281, 72 281.054, 72 288.984 C 72 293.705, 69.854 298.472, 67.055 299.970 C 64.541 301.316, 58.407 301.288, 55.850 299.920 C 53.057 298.425, 51 293.003, 51 287.139 C 51 281.643, 50.274 281, 44.067 281 C 35.939 281, 31 277.252, 31 271.082 C 31 264.195, 35.853 260, 43.819 260 C 51.355 260, 51 261.037, 51 239 C 51 216.861, 51.409 218, 43.465 218 C 34.839 218, 31.615 214.881, 30.471 205.429 C 30.076 202.168, 29.304 198.938, 28.754 198.250 C 28.099 197.430, 24.892 197, 19.437 197 C 13.864 197, 10.861 197.413, 10.339 198.250 C 9.911 198.938, 9.266 202.327, 8.906 205.782 C 8.219 212.374, 6.371 215.514, 2.250 217.090 C 0.015 217.945, -0 218.092, -0 239.027 L 0 260.104 3.030 261.160 C 6.267 262.289, 9.002 266.434, 8.996 270.200 C 8.991 273.650, 5.399 278.862, 2.531 279.582 C 0.017 280.213, 0 280.289, 0 291.108 L 0 302 3.250 301.985 C 8.051 301.962, 8.698 301.118, 9.185 294.249 C 9.550 289.090, 10.122 287.482, 12.454 285.048 C 16.116 281.226, 19.947 280.406, 24.361 282.501 C 28.272 284.357, 29.586 287.063, 30.391 294.925 C 31.025 301.114, 31.893 301.963, 37.601 301.985 C 43.497 302.007, 47.355 303.638, 49.301 306.933 C 54.103 315.062, 47.782 323, 36.507 323 C 32.457 323, 31.834 323.306, 30.900 325.750 C 29.806 328.616, 29.989 362.328, 31.105 363.440 C 31.437 363.771, 34.773 364.411, 38.518 364.862 C 44.387 365.569, 45.718 366.120, 48.163 368.857 C 50.507 371.479, 51.003 372.942, 51.015 377.266 C 51.024 380.145, 51.361 383.008, 51.765 383.629 C 52.815 385.242, 61.710 386.191, 66.971 385.252 L 71.443 384.454 72.553 377.070 C 73.886 368.211, 76.646 365, 82.931 365 C 85.031 365, 88.156 364.719, 89.875 364.375 L 93 363.750 93 343.982 C 93 321.985, 93.344 323, 85.886 323 C 80.902 323, 75.485 320.775, 74.080 318.150 C 72.510 315.216, 72.757 309.300, 74.566 306.540 C 76.972 302.867, 81.107 302, 96.215 302 C 103.896 302, 110.998 301.536, 112.066 300.965 C 113.352 300.276, 114.008 298.853, 114.024 296.715 C 114.124 283.281, 123.071 276.627, 131.234 283.916 L 134.500 286.833 134.800 310.869 C 135.053 331.148, 134.855 335.379, 133.533 337.936 C 131.463 341.939, 127.232 344, 121.085 344 C 117.151 344, 115.847 344.417, 115.035 345.934 C 114.457 347.015, 114 354.321, 114 362.484 C 114 378.721, 113.156 381.834, 108.033 384.483 C 106.419 385.317, 102.917 386, 100.250 386 C 97.582 386, 94.860 386.540, 94.200 387.200 C 93.540 387.860, 93 390.582, 93 393.250 C 93 395.917, 92.295 399.462, 91.434 401.128 C 88.905 406.018, 84.997 407, 68.067 407 C 51.148 407, 51 407.068, 51 414.869 C 51 420.575, 49.529 423.707, 45.775 425.996 C 42.774 427.826, 40.724 427.993, 21.250 427.996 L 0 428 0 438.500 L 0 449 20.250 448.912 C 31.387 448.864, 42.750 448.527, 45.500 448.162 L 50.500 447.500 51.069 441 C 52.182 428.290, 54.514 427, 76.382 427 C 94.044 427, 92.384 427.914, 93.327 417.674 C 94 410.363, 97.387 407.329, 105.874 406.434 C 109.518 406.049, 112.831 405.232, 113.235 404.617 C 113.639 404.003, 113.976 401.131, 113.985 398.235 C 113.998 393.667, 114.444 392.487, 117.355 389.310 C 120.412 385.974, 121.279 385.608, 127.105 385.195 C 130.622 384.946, 133.831 384.238, 134.235 383.621 C 134.639 383.004, 134.976 375.818, 134.985 367.651 C 135.002 350.703, 135.994 347.180, 141.478 344.577 C 143.307 343.710, 147.070 343, 149.842 343 C 152.614 343, 155.124 342.608, 155.420 342.129 C 155.716 341.650, 155.990 318.886, 156.028 291.541 C 156.080 254.922, 155.790 241.451, 154.927 240.412 C 154.237 239.581, 151.913 239, 149.279 239 C 143.101 239, 138.069 236.410, 136.377 232.360 C 135.418 230.064, 135 224.565, 135 214.232 C 135 204.029, 134.625 199.025, 133.800 198.200 C 133.140 197.540, 130.327 196.998, 127.550 196.996 C 121.890 196.992, 116.574 194.385, 115.532 191.102 C 115.177 189.982, 114.574 186.238, 114.193 182.783 L 113.500 176.500 107 175.981 C 103.425 175.696, 99.449 174.872, 98.165 174.151 C 95.069 172.411, 93 167.199, 93 161.139 C 93 157.571, 92.564 156.047, 91.418 155.607 C 90.548 155.273, 83.304 155, 75.319 155 C 63.822 155, 60.069 154.652, 57.278 153.328 C 53.035 151.314, 51 147.043, 51 140.149 C 51 135.897, 50.696 135.152, 48.750 134.630 C 47.513 134.299, 36.038 134.021, 23.250 134.014 L 0 134 -0 144.447 M 286.029 134.882 C 282.568 135.498, 282.556 135.519, 281.447 142.907 C 280.538 148.965, 279.840 150.741, 277.612 152.657 C 275.062 154.850, 274.071 155, 262.084 155 C 255.041 155, 247.244 155.279, 244.757 155.620 L 240.235 156.240 239.559 163.102 C 238.990 168.875, 238.416 170.430, 235.944 172.902 C 233.526 175.320, 231.852 175.964, 226.489 176.538 C 222.905 176.922, 219.738 177.615, 219.452 178.077 C 219.166 178.540, 218.569 181.937, 218.125 185.627 C 217.445 191.270, 216.872 192.691, 214.512 194.572 C 211.463 197.003, 207.829 198, 202.017 198 L 198.285 198 197.642 204.147 C 197.289 207.527, 197 215.437, 197 221.724 C 197 232.865, 196.930 233.223, 194.244 235.910 C 191.963 238.191, 190.304 238.776, 184.602 239.308 C 180.814 239.662, 177.597 240.075, 177.452 240.226 C 177.307 240.377, 177.039 263.357, 176.857 291.294 C 176.487 347.953, 175.969 343.956, 183.685 343.985 C 188.894 344.004, 192.199 345.224, 194.904 348.127 C 196.828 350.192, 197 351.543, 197 364.564 C 197 372.366, 197.271 380.103, 197.601 381.757 C 198.171 384.603, 198.529 384.802, 204.288 385.453 C 210.369 386.141, 215.261 387.995, 216.565 390.105 C 216.945 390.720, 217.599 394.349, 218.019 398.169 C 218.438 401.989, 219.030 405.363, 219.334 405.668 C 219.639 405.972, 222.868 406.460, 226.509 406.753 C 232.031 407.196, 233.594 407.748, 235.923 410.077 C 238.252 412.406, 238.804 413.969, 239.247 419.491 C 239.540 423.132, 240.063 426.396, 240.409 426.743 C 240.756 427.090, 248.653 427.627, 257.958 427.937 C 274.808 428.498, 274.887 428.511, 277.805 431.311 C 280.294 433.697, 280.815 435.100, 281.257 440.617 C 281.544 444.189, 282.091 447.424, 282.472 447.806 C 283.445 448.781, 372.192 449.201, 379.500 448.265 L 385.500 447.497 386.069 440.999 C 387.182 428.290, 389.515 427, 411.382 427 C 429.044 427, 427.384 427.914, 428.327 417.674 C 429 410.363, 432.387 407.329, 440.874 406.434 C 444.518 406.049, 447.831 405.232, 448.235 404.617 C 448.639 404.003, 448.976 401.131, 448.985 398.235 C 448.998 393.667, 449.444 392.487, 452.355 389.310 C 455.412 385.974, 456.279 385.608, 462.105 385.195 C 465.622 384.946, 468.831 384.238, 469.235 383.621 C 469.639 383.004, 469.976 375.818, 469.985 367.651 C 470.002 350.703, 470.994 347.180, 476.478 344.577 C 478.307 343.710, 482.070 343, 484.842 343 C 487.614 343, 490.124 342.608, 490.420 342.129 C 490.716 341.650, 490.990 318.886, 491.028 291.541 C 491.080 254.922, 490.790 241.451, 489.927 240.412 C 489.237 239.581, 486.913 239, 484.279 239 C 478.101 239, 473.069 236.410, 471.377 232.360 C 470.418 230.064, 470 224.565, 470 214.232 C 470 204.029, 469.625 199.025, 468.800 198.200 C 468.140 197.540, 465.328 196.998, 462.550 196.996 C 456.890 196.992, 451.574 194.385, 450.532 191.102 C 450.177 189.982, 449.574 186.238, 449.193 182.783 L 448.500 176.500 442 175.981 C 438.425 175.696, 434.449 174.872, 433.165 174.151 C 430.069 172.411, 428 167.199, 428 161.139 C 428 157.571, 427.564 156.047, 426.418 155.607 C 425.548 155.273, 418.304 155, 410.319 155 C 398.822 155, 395.069 154.652, 392.278 153.328 C 388.035 151.314, 386 147.043, 386 140.149 C 386 135.897, 385.696 135.152, 383.750 134.630 C 380.812 133.843, 290.556 134.075, 286.029 134.882 M 621.029 134.882 C 617.568 135.498, 617.556 135.519, 616.447 142.907 C 615.538 148.965, 614.840 150.741, 612.612 152.657 C 610.062 154.850, 609.071 155, 597.084 155 C 590.041 155, 582.244 155.279, 579.757 155.620 L 575.235 156.240 574.559 163.102 C 573.990 168.875, 573.416 170.430, 570.944 172.902 C 568.526 175.320, 566.852 175.964, 561.489 176.538 C 557.905 176.922, 554.738 177.615, 554.452 178.077 C 554.166 178.540, 553.569 181.937, 553.125 185.627 C 552.445 191.270, 551.872 192.691, 549.512 194.572 C 546.463 197.003, 542.829 198, 537.017 198 L 533.285 198 532.642 204.147 C 532.289 207.527, 532 215.437, 532 221.724 C 532 232.865, 531.930 233.223, 529.244 235.910 C 526.963 238.191, 525.304 238.776, 519.602 239.308 C 515.814 239.662, 512.597 240.075, 512.452 240.226 C 512.307 240.377, 512.039 263.357, 511.857 291.294 C 511.487 347.953, 510.969 343.956, 518.685 343.985 C 523.894 344.004, 527.199 345.224, 529.904 348.127 C 531.828 350.192, 532 351.543, 532 364.564 C 532 372.366, 532.271 380.103, 532.601 381.757 C 533.171 384.603, 533.529 384.802, 539.288 385.453 C 545.369 386.141, 550.261 387.995, 551.565 390.105 C 551.945 390.720, 552.599 394.349, 553.019 398.169 C 553.438 401.989, 554.030 405.363, 554.334 405.668 C 554.639 405.972, 557.868 406.460, 561.509 406.753 C 567.031 407.196, 568.594 407.748, 570.923 410.077 C 573.252 412.406, 573.804 413.969, 574.247 419.491 C 574.540 423.132, 575.063 426.396, 575.409 426.743 C 575.756 427.090, 583.653 427.627, 592.958 427.937 C 609.808 428.498, 609.887 428.511, 612.805 431.311 C 615.294 433.697, 615.815 435.100, 616.257 440.617 C 616.544 444.189, 617.090 447.424, 617.471 447.806 C 617.852 448.188, 629.826 448.640, 644.082 448.811 L 670 449.123 670 438.613 L 670 428.103 646.521 427.801 L 623.042 427.500 620.271 424.739 C 618.047 422.523, 617.303 420.548, 616.500 414.739 L 615.500 407.500 598.402 407 C 576.926 406.372, 576.287 406.011, 574.500 393.500 L 573.500 386.500 567 385.881 C 559.025 385.123, 557.608 384.551, 555.310 381.166 C 553.798 378.938, 553.418 375.706, 553 361.500 L 552.500 344.500 545.585 343.907 C 539.440 343.379, 538.353 342.960, 535.835 340.141 C 529.487 333.037, 534.156 323.015, 543.827 322.986 C 552.238 322.962, 552.677 322.617, 553.242 315.578 C 553.826 308.296, 555.899 304.579, 560.215 303.075 C 561.911 302.484, 569.869 301.993, 577.899 301.985 C 585.930 301.976, 592.996 301.639, 593.603 301.235 C 594.209 300.831, 594.959 297.640, 595.268 294.144 C 595.719 289.034, 596.364 287.229, 598.555 284.942 C 602.105 281.237, 605.983 280.424, 610.308 282.476 C 614.494 284.462, 615.698 286.825, 616.361 294.355 C 616.645 297.576, 617.094 300.427, 617.359 300.692 C 617.624 300.957, 620.689 301.541, 624.170 301.989 C 632.387 303.047, 633.777 303.668, 635.537 307.072 C 637.400 310.674, 637.387 313.351, 635.490 317.020 C 633.502 320.864, 630.755 322.223, 623.561 322.922 C 617.791 323.484, 617.596 323.599, 616.728 326.958 C 615.770 330.668, 616.098 362.436, 617.105 363.440 C 617.437 363.771, 620.773 364.411, 624.518 364.862 C 630.387 365.569, 631.718 366.120, 634.163 368.857 C 636.507 371.479, 637.003 372.942, 637.015 377.266 C 637.024 380.145, 637.361 382.993, 637.765 383.596 C 638.788 385.122, 646.794 386.049, 652.802 385.337 L 657.823 384.742 658.534 377.658 C 659.143 371.601, 659.669 370.177, 662.162 367.849 C 663.765 366.351, 666.297 364.985, 667.789 364.813 L 670.500 364.500 670.770 343.179 C 670.955 328.612, 670.711 322.061, 670.001 322.500 C 668.241 323.587, 662.252 321.034, 660.582 318.485 C 658.723 315.648, 658.538 311.107, 660.139 307.595 C 661.191 305.286, 666.336 302, 668.901 302 C 669.630 302, 670 298.463, 670 291.500 L 670 281 664.975 281 C 660.502 281, 659.844 281.281, 658.975 283.565 C 658.439 284.976, 658 287.698, 658 289.615 C 658 293.772, 655.722 298.543, 653.055 299.970 C 650.541 301.316, 644.407 301.288, 641.850 299.920 C 639.057 298.425, 637 293.003, 637 287.139 C 637 281.643, 636.274 281, 630.067 281 C 621.681 281, 617 277.257, 617 270.551 C 617 265.058, 621.265 260.924, 627.532 260.343 C 638.032 259.370, 637 261.686, 637 239.088 C 637 216.851, 637.411 218, 629.465 218 C 620.692 218, 617.523 214.814, 616.421 204.884 C 616.031 201.373, 615.214 198.169, 614.606 197.765 C 613.021 196.713, 598.776 196.856, 597.059 197.942 C 596.177 198.500, 595.351 201.443, 594.927 205.536 C 593.951 214.965, 591.516 217.292, 582.069 217.826 L 575.117 218.219 574.461 223.463 C 574.101 226.347, 573.962 235.314, 574.153 243.391 C 574.541 259.810, 574.608 259.959, 581.601 259.985 C 587.597 260.007, 591.854 261.818, 593.530 265.059 C 595.413 268.700, 595.388 271.350, 593.434 275.128 C 590.906 280.016, 586.995 281, 570.091 281 C 559.195 281, 554.906 281.340, 554.339 282.250 C 553.911 282.938, 553.265 286.337, 552.904 289.804 C 552.146 297.078, 549.610 300.607, 544.445 301.576 C 540.827 302.255, 537.377 300.849, 534.772 297.633 C 533.238 295.739, 533.044 292.697, 533.044 270.500 C 533.044 248.303, 533.238 245.261, 534.772 243.367 C 537.075 240.524, 540.229 239, 543.809 239 C 545.427 239, 548.119 238.726, 549.792 238.392 L 552.835 237.783 553.167 220.813 L 553.500 203.843 557.235 200.421 C 560.257 197.653, 561.785 196.997, 565.235 196.986 C 573.227 196.961, 573.707 196.563, 574.482 189.328 C 575.031 184.201, 575.772 182.166, 578.004 179.667 L 580.831 176.500 596.165 176.233 C 604.599 176.086, 612.460 175.753, 613.632 175.493 C 615.454 175.090, 615.869 174.045, 616.482 168.323 C 617.278 160.889, 618.784 157.875, 622.561 156.154 C 624.235 155.391, 632.709 155, 647.547 155 L 670 155 670 144.500 L 670 134 647.250 134.132 C 634.737 134.204, 622.938 134.542, 621.029 134.882 M 287.241 156.309 C 283.581 158.368, 282.252 161.133, 281.487 168.281 C 280.869 174.044, 280.456 175.089, 278.632 175.493 C 277.460 175.753, 269.599 176.086, 261.165 176.233 L 245.831 176.500 243.004 179.667 C 240.772 182.166, 240.031 184.201, 239.482 189.328 C 238.707 196.563, 238.227 196.961, 230.235 196.986 C 226.785 196.997, 225.257 197.653, 222.235 200.421 L 218.500 203.843 218.167 220.813 L 217.835 237.783 214.792 238.392 C 213.119 238.726, 210.427 239, 208.809 239 C 205.229 239, 202.075 240.524, 199.772 243.367 C 198.238 245.261, 198.044 248.303, 198.044 270.500 C 198.044 292.697, 198.238 295.739, 199.772 297.633 C 202.377 300.849, 205.827 302.255, 209.445 301.576 C 214.610 300.607, 217.146 297.078, 217.904 289.804 C 218.265 286.337, 218.911 282.938, 219.339 282.250 C 219.906 281.340, 224.195 281, 235.091 281 C 251.995 281, 255.906 280.016, 258.434 275.128 C 262.756 266.769, 257.487 260.025, 246.601 259.985 C 239.608 259.959, 239.541 259.810, 239.153 243.391 C 238.962 235.314, 239.101 226.347, 239.461 223.463 L 240.117 218.219 247.069 217.826 C 256.516 217.292, 258.951 214.965, 259.927 205.536 C 260.351 201.443, 261.177 198.500, 262.059 197.942 C 263.776 196.856, 278.021 196.713, 279.606 197.765 C 280.214 198.169, 281.031 201.373, 281.421 204.884 C 282.523 214.814, 285.692 218, 294.465 218 C 302.411 218, 302 216.851, 302 239.088 C 302 261.686, 303.032 259.370, 292.532 260.343 C 286.265 260.924, 282 265.058, 282 270.551 C 282 277.257, 286.681 281, 295.067 281 C 301.274 281, 302 281.643, 302 287.139 C 302 293.003, 304.057 298.425, 306.850 299.920 C 309.407 301.288, 315.541 301.316, 318.055 299.970 C 320.722 298.543, 323 293.772, 323 289.615 C 323 287.698, 323.439 284.976, 323.975 283.565 C 324.825 281.330, 325.536 281, 329.507 281 C 335.675 281, 340.540 278.790, 342.434 275.128 C 346.756 266.769, 341.487 260.025, 330.601 259.985 C 323.558 259.958, 323.540 259.917, 323.158 242.397 C 322.969 233.774, 323.102 224.806, 323.452 222.469 L 324.089 218.221 331.055 217.827 C 340.418 217.298, 342.952 214.936, 343.898 205.859 C 344.263 202.362, 344.911 198.938, 345.339 198.250 C 345.861 197.413, 348.864 197, 354.437 197 C 359.892 197, 363.099 197.430, 363.754 198.250 C 364.304 198.938, 365.076 202.168, 365.471 205.429 C 366.615 214.881, 369.839 218, 378.465 218 C 386.409 218, 386 216.861, 386 239 C 386 261.037, 386.355 260, 378.819 260 C 370.853 260, 366 264.195, 366 271.082 C 366 277.252, 370.939 281, 379.067 281 C 385.274 281, 386 281.643, 386 287.139 C 386 293.003, 388.057 298.425, 390.850 299.920 C 393.407 301.288, 399.541 301.316, 402.055 299.970 C 404.854 298.472, 407 293.705, 407 288.984 C 407 281.054, 407.116 281, 424.067 281 C 444.844 281, 449 278.952, 449 268.712 C 449 261.422, 450.138 260, 455.970 260 C 462.559 260, 465.603 258.683, 468.047 254.775 C 470.626 250.652, 470.041 245.586, 466.586 242.132 C 464.694 240.240, 462.530 239.465, 457.410 238.849 C 453.724 238.405, 450.437 237.771, 450.105 237.440 C 449.772 237.108, 449.368 229.786, 449.207 221.168 C 449.046 212.551, 448.471 204.363, 447.928 202.972 C 446.499 199.311, 443.346 197.693, 436.131 196.918 C 432.499 196.528, 429.390 195.646, 428.897 194.867 C 428.420 194.115, 428.024 191.145, 428.015 188.266 C 428.003 183.909, 427.511 182.484, 425.084 179.766 L 422.169 176.500 405.334 176.202 C 385.987 175.860, 386 175.866, 386 167.325 C 386 162.890, 385.527 161.502, 383.083 158.766 L 380.165 155.500 334.833 155.269 C 299.676 155.090, 288.993 155.324, 287.241 156.309 M 14.381 219.858 C 10.099 222.540, 9 226.485, 9 239.181 C 9 255.173, 11.131 259, 20.033 259 C 23.402 259, 24.752 258.407, 27.099 255.894 L 30 252.788 30 238.910 C 30 225.176, 29.971 225, 27.250 221.981 C 23.665 218.004, 18.659 217.178, 14.381 219.858 M 266.500 219.381 C 261.660 221.609, 260.622 224.380, 260.179 236.253 C 259.959 242.167, 260.083 248.629, 260.455 250.612 C 262.016 258.934, 272.094 262.059, 278.077 256.077 L 281 253.154 281 239.093 C 281 225.152, 280.977 225.006, 278.250 222.013 C 274.997 218.443, 270.653 217.470, 266.500 219.381 M 349.381 219.858 C 345.099 222.540, 344 226.485, 344 239.181 C 344 255.173, 346.131 259, 355.033 259 C 358.402 259, 359.752 258.407, 362.099 255.894 L 365 252.788 365 238.910 C 365 225.176, 364.971 225, 362.250 221.981 C 358.665 218.004, 353.659 217.178, 349.381 219.858 M 601.500 219.381 C 596.660 221.609, 595.622 224.380, 595.179 236.253 C 594.959 242.167, 595.083 248.629, 595.455 250.612 C 597.016 258.934, 607.094 262.059, 613.077 256.077 L 616 253.154 616 239.093 C 616 225.152, 615.977 225.006, 613.250 222.013 C 609.997 218.443, 605.653 217.470, 601.500 219.381 M 658.469 222.359 C 658.109 224.757, 657.969 233.774, 658.158 242.397 C 658.541 259.964, 658.539 259.959, 665.750 259.985 L 670 260 670 239 L 670 218 664.561 218 L 659.123 218 658.469 222.359 M 267.500 281.954 C 263.095 283.776, 260.849 287.565, 260.267 294.156 C 259.958 297.645, 259.209 300.831, 258.603 301.235 C 257.996 301.639, 250.930 301.976, 242.899 301.985 C 234.869 301.993, 226.911 302.484, 225.215 303.075 C 220.899 304.579, 218.826 308.296, 218.242 315.578 C 217.677 322.617, 217.238 322.962, 208.827 322.986 C 199.156 323.015, 194.487 333.037, 200.835 340.141 C 203.353 342.960, 204.440 343.379, 210.585 343.907 L 217.500 344.500 218 361.500 C 218.654 383.745, 219.181 384.662, 232 385.881 L 238.500 386.500 239.500 393.500 C 241.287 406.011, 241.926 406.372, 263.402 407 L 280.500 407.500 281.500 414.739 C 282.303 420.550, 283.047 422.522, 285.272 424.739 L 288.044 427.500 332.772 427.763 C 376.093 428.018, 377.603 427.963, 380.775 426.013 C 384.531 423.703, 386 420.570, 386 414.869 C 386 407.068, 386.148 407, 403.067 407 C 419.997 407, 423.905 406.018, 426.434 401.128 C 427.295 399.462, 428 395.917, 428 393.250 C 428 390.582, 428.540 387.860, 429.200 387.200 C 429.860 386.540, 432.582 386, 435.250 386 C 437.917 386, 441.419 385.317, 443.033 384.483 C 448.156 381.834, 449 378.721, 449 362.484 C 449 354.321, 449.457 347.015, 450.035 345.934 C 450.847 344.417, 452.151 344, 456.085 344 C 462.232 344, 466.463 341.939, 468.533 337.936 C 469.855 335.379, 470.053 331.148, 469.800 310.869 L 469.500 286.833 466.234 283.916 C 458.071 276.627, 449.124 283.281, 449.024 296.715 C 449.008 298.853, 448.352 300.276, 447.066 300.965 C 445.998 301.536, 438.896 302, 431.215 302 C 416.107 302, 411.972 302.867, 409.566 306.540 C 407.757 309.300, 407.510 315.216, 409.080 318.150 C 410.485 320.775, 415.902 323, 420.886 323 C 428.344 323, 428 321.985, 428 343.982 L 428 363.750 424.875 364.375 C 423.156 364.719, 420.031 365, 417.931 365 C 411.646 365, 408.886 368.211, 407.553 377.070 L 406.443 384.454 401.971 385.252 C 396.710 386.191, 387.815 385.242, 386.765 383.629 C 386.361 383.008, 386.024 380.145, 386.015 377.266 C 386.003 372.942, 385.507 371.479, 383.163 368.857 C 380.718 366.120, 379.387 365.569, 373.518 364.862 C 369.773 364.411, 366.437 363.771, 366.105 363.440 C 364.989 362.328, 364.806 328.616, 365.900 325.750 C 366.834 323.306, 367.457 323, 371.507 323 C 377.675 323, 382.540 320.790, 384.434 317.128 C 388.704 308.870, 383.355 302.025, 372.601 301.985 C 366.893 301.963, 366.025 301.114, 365.391 294.925 C 364.586 287.063, 363.272 284.357, 359.361 282.501 C 354.947 280.406, 351.116 281.226, 347.454 285.048 C 345.122 287.482, 344.550 289.090, 344.185 294.249 C 343.941 297.687, 343.238 300.831, 342.621 301.235 C 342.004 301.639, 339.543 301.976, 337.151 301.985 C 328.838 302.014, 324 306.096, 324 313.082 C 324 319.252, 328.939 323, 337.067 323 C 344.317 323, 344 322.041, 344 343.990 C 344 366.474, 344.661 364.958, 334.856 364.986 C 331.166 364.997, 329.598 365.573, 327.229 367.786 C 324.660 370.186, 324.147 371.557, 323.534 377.658 L 322.823 384.742 317.802 385.337 C 311.794 386.049, 303.788 385.122, 302.765 383.596 C 302.361 382.993, 302.024 380.145, 302.015 377.266 C 302.003 372.942, 301.507 371.479, 299.163 368.857 C 296.718 366.120, 295.387 365.569, 289.518 364.862 C 285.773 364.411, 282.437 363.771, 282.105 363.440 C 281.098 362.436, 280.770 330.668, 281.728 326.958 C 282.596 323.599, 282.791 323.484, 288.561 322.922 C 295.755 322.223, 298.502 320.864, 300.490 317.020 C 302.387 313.351, 302.400 310.674, 300.537 307.072 C 298.777 303.668, 297.387 303.047, 289.170 301.989 C 285.689 301.541, 282.624 300.957, 282.359 300.692 C 282.094 300.427, 281.645 297.576, 281.361 294.355 C 280.703 286.881, 279.492 284.462, 275.454 282.545 C 271.849 280.834, 270.457 280.731, 267.500 281.954 M 1 344 C 1 366.944, 0.729 365.983, 6.750 364.370 C 8.987 363.770, 9 363.654, 9 343.990 C 9 322.573, 9.114 323, 3.418 323 L 1 323 1 344 M 57.321 324.613 C 52.459 327.011, 51 331.204, 51 342.776 C 51 355.203, 51.616 358.343, 54.647 361.374 C 57.687 364.414, 61.626 365.183, 65.619 363.515 C 71.294 361.143, 72 359.021, 72 344.325 C 72 329.484, 71.255 326.823, 66.460 324.548 C 62.424 322.633, 61.321 322.641, 57.321 324.613 M 308.321 324.613 C 302.959 327.257, 301.748 331.367, 302.150 345.546 C 302.490 357.511, 302.583 357.956, 305.342 360.836 C 308.761 364.403, 312.415 365.271, 316.619 363.515 C 322.302 361.140, 323 359.030, 323 344.228 C 323 329.102, 322.027 325.902, 316.881 324.108 C 312.803 322.687, 312.149 322.725, 308.321 324.613 M 392.321 324.613 C 387.459 327.011, 386 331.204, 386 342.776 C 386 355.203, 386.616 358.343, 389.647 361.374 C 392.687 364.414, 396.626 365.183, 400.619 363.515 C 406.294 361.143, 407 359.021, 407 344.325 C 407 329.484, 406.255 326.823, 401.460 324.548 C 397.424 322.633, 396.321 322.641, 392.321 324.613 M 643.321 324.613 C 637.959 327.257, 636.748 331.367, 637.150 345.546 C 637.490 357.511, 637.583 357.956, 640.342 360.836 C 643.761 364.403, 647.415 365.271, 651.619 363.515 C 657.302 361.140, 658 359.030, 658 344.228 C 658 329.102, 657.027 325.902, 651.881 324.108 C 647.803 322.687, 647.149 322.725, 643.321 324.613 M 119.029 428.882 C 115.568 429.498, 115.556 429.519, 114.447 436.907 C 113.538 442.965, 112.840 444.741, 110.612 446.657 C 108.062 448.850, 107.071 449, 95.084 449 C 88.041 449, 80.244 449.279, 77.757 449.620 L 73.235 450.240 72.559 457.102 C 71.990 462.875, 71.416 464.430, 68.944 466.902 C 66.526 469.320, 64.852 469.964, 59.489 470.538 C 55.905 470.922, 52.738 471.615, 52.452 472.077 C 52.166 472.540, 51.569 475.937, 51.125 479.627 C 50.445 485.270, 49.872 486.691, 47.512 488.572 C 44.463 491.003, 40.829 492, 35.017 492 L 31.285 492 30.642 498.147 C 30.289 501.527, 30 509.437, 30 515.724 C 30 527.024, 29.967 527.187, 27.077 530.077 C 25.026 532.128, 23.161 533.003, 20.827 533.011 C 18.997 533.017, 15.812 533.301, 13.750 533.642 L 10 534.262 10 560.631 L 10 587 20.500 587 L 31 587 31.022 563.250 C 31.042 542.258, 31.245 539.252, 32.772 537.367 C 35.075 534.524, 38.229 533, 41.809 533 C 43.427 533, 46.119 532.726, 47.792 532.392 L 50.835 531.783 51.167 514.813 L 51.500 497.843 55.235 494.421 C 58.257 491.653, 59.785 490.997, 63.235 490.986 C 71.227 490.961, 71.707 490.563, 72.482 483.328 C 73.031 478.201, 73.772 476.166, 76.004 473.667 L 78.831 470.500 94.165 470.233 C 102.599 470.086, 110.460 469.753, 111.632 469.493 C 113.454 469.090, 113.869 468.045, 114.482 462.323 C 115.292 454.756, 116.870 451.711, 120.829 450.071 C 122.759 449.271, 136.710 449.022, 168.363 449.220 L 213.165 449.500 216.083 452.766 C 218.527 455.502, 219 456.890, 219 461.325 C 219 469.866, 218.987 469.860, 238.334 470.202 L 255.169 470.500 258.084 473.766 C 260.511 476.484, 261.003 477.909, 261.015 482.266 C 261.024 485.145, 261.420 488.115, 261.897 488.867 C 262.390 489.646, 265.499 490.528, 269.131 490.918 C 276.346 491.693, 279.499 493.311, 280.928 496.972 C 281.471 498.363, 282.046 506.551, 282.207 515.168 C 282.368 523.786, 282.772 531.108, 283.105 531.440 C 283.437 531.771, 286.724 532.405, 290.410 532.849 C 295.530 533.465, 297.694 534.240, 299.586 536.132 C 303.041 539.586, 303.626 544.652, 301.047 548.775 C 298.603 552.683, 295.559 554, 288.970 554 C 283.138 554, 282 555.422, 282 562.712 C 282 572.952, 277.844 575, 257.067 575 C 240.124 575, 240 575.058, 240 582.954 L 240 587.040 261.210 586.770 L 282.419 586.500 283.131 583.019 C 284.016 578.686, 288.391 575.012, 292.673 575.005 C 296.955 574.998, 301.748 579.139, 302.577 583.560 L 303.223 587 313.611 587 L 324 587 324.134 565.750 C 324.347 532.064, 324.543 533, 317.279 533 C 311.101 533, 306.069 530.410, 304.377 526.360 C 303.418 524.064, 303 518.565, 303 508.232 C 303 498.029, 302.625 493.025, 301.800 492.200 C 301.140 491.540, 298.328 490.998, 295.550 490.996 C 289.890 490.992, 284.574 488.385, 283.532 485.102 C 283.177 483.982, 282.574 480.238, 282.193 476.783 L 281.500 470.500 275 469.981 C 271.425 469.696, 267.449 468.872, 266.165 468.151 C 263.069 466.411, 261 461.199, 261 455.139 C 261 451.571, 260.564 450.047, 259.418 449.607 C 258.548 449.273, 251.304 449, 243.319 449 C 231.822 449, 228.069 448.652, 225.278 447.328 C 221.035 445.314, 219 441.043, 219 434.149 C 219 429.897, 218.696 429.152, 216.750 428.630 C 213.812 427.843, 123.556 428.075, 119.029 428.882 M 454.029 428.882 C 450.568 429.498, 450.556 429.519, 449.447 436.907 C 448.538 442.965, 447.840 444.741, 445.612 446.657 C 443.062 448.850, 442.071 449, 430.084 449 C 423.041 449, 415.244 449.279, 412.757 449.620 L 408.235 450.240 407.559 457.102 C 406.990 462.875, 406.416 464.430, 403.944 466.902 C 401.526 469.320, 399.852 469.964, 394.489 470.538 C 390.905 470.922, 387.738 471.615, 387.452 472.077 C 387.166 472.540, 386.569 475.937, 386.125 479.627 C 385.445 485.270, 384.872 486.691, 382.512 488.572 C 379.463 491.003, 375.829 492, 370.017 492 L 366.285 492 365.642 498.147 C 365.289 501.527, 365 509.437, 365 515.724 C 365 527.024, 364.967 527.187, 362.077 530.077 C 360.026 532.128, 358.161 533.003, 355.827 533.011 C 353.997 533.017, 350.813 533.301, 348.750 533.642 L 345 534.262 345 560.631 L 345 587 355.500 587 L 366 587 366.022 563.250 C 366.042 542.258, 366.245 539.252, 367.772 537.367 C 370.075 534.524, 373.229 533, 376.809 533 C 378.427 533, 381.119 532.726, 382.792 532.392 L 385.835 531.783 386.167 514.813 L 386.500 497.843 390.235 494.421 C 393.257 491.653, 394.785 490.997, 398.235 490.986 C 406.227 490.961, 406.707 490.563, 407.482 483.328 C 408.031 478.201, 408.772 476.166, 411.004 473.667 L 413.831 470.500 429.165 470.233 C 437.599 470.086, 445.460 469.753, 446.632 469.493 C 448.454 469.090, 448.869 468.045, 449.482 462.323 C 450.292 454.756, 451.870 451.711, 455.829 450.071 C 457.759 449.271, 471.710 449.022, 503.363 449.220 L 548.165 449.500 551.083 452.766 C 553.527 455.502, 554 456.890, 554 461.325 C 554 469.866, 553.987 469.860, 573.334 470.202 L 590.169 470.500 593.084 473.766 C 595.511 476.484, 596.003 477.909, 596.015 482.266 C 596.024 485.145, 596.420 488.115, 596.897 488.867 C 597.390 489.646, 600.499 490.528, 604.131 490.918 C 611.346 491.693, 614.499 493.311, 615.928 496.972 C 616.471 498.363, 617.046 506.551, 617.207 515.168 C 617.368 523.786, 617.772 531.108, 618.105 531.440 C 618.437 531.771, 621.724 532.405, 625.410 532.849 C 630.530 533.465, 632.694 534.240, 634.586 536.132 C 638.041 539.586, 638.626 544.652, 636.047 548.775 C 633.603 552.683, 630.559 554, 623.970 554 C 618.138 554, 617 555.422, 617 562.712 C 617 572.952, 612.844 575, 592.067 575 C 575.124 575, 575 575.058, 575 582.954 L 575 587.040 596.210 586.770 L 617.419 586.500 618.131 583.019 C 619.016 578.686, 623.391 575.012, 627.673 575.005 C 631.955 574.998, 636.748 579.139, 637.577 583.560 L 638.223 587 648.611 587 L 659 587 659.134 565.750 C 659.347 532.064, 659.543 533, 652.279 533 C 646.101 533, 641.069 530.410, 639.377 526.360 C 638.418 524.064, 638 518.565, 638 508.232 C 638 498.029, 637.625 493.025, 636.800 492.200 C 636.140 491.540, 633.328 490.998, 630.550 490.996 C 624.890 490.992, 619.574 488.385, 618.532 485.102 C 618.177 483.982, 617.574 480.238, 617.193 476.783 L 616.500 470.500 610 469.981 C 606.425 469.696, 602.449 468.872, 601.165 468.151 C 598.069 466.411, 596 461.199, 596 455.139 C 596 451.571, 595.564 450.047, 594.418 449.607 C 593.548 449.273, 586.304 449, 578.319 449 C 566.822 449, 563.069 448.652, 560.278 447.328 C 556.035 445.314, 554 441.043, 554 434.149 C 554 429.897, 553.696 429.152, 551.750 428.630 C 548.812 427.843, 458.556 428.075, 454.029 428.882 M 95.059 491.942 C 94.177 492.500, 93.351 495.443, 92.927 499.536 C 91.951 508.965, 89.516 511.292, 80.069 511.826 L 73.117 512.219 72.461 517.463 C 72.101 520.347, 71.962 529.314, 72.153 537.391 C 72.541 553.810, 72.608 553.959, 79.601 553.985 C 85.597 554.007, 89.854 555.818, 91.530 559.059 C 93.413 562.700, 93.388 565.350, 91.434 569.128 C 88.905 574.018, 84.997 575, 68.067 575 C 51.130 575, 51 575.060, 51 582.934 L 51 587 71.981 587 L 92.962 587 93.610 584.250 C 94.471 580.595, 98.634 576.239, 101.967 575.507 C 107.422 574.309, 114 579.054, 114 584.189 L 114 587 124.500 587 L 135 587 135 581.607 C 135 575.597, 134.373 575, 128.067 575 C 119.681 575, 115 571.257, 115 564.551 C 115 559.058, 119.265 554.924, 125.532 554.343 C 136.032 553.370, 135 555.686, 135 533.088 C 135 510.851, 135.411 512, 127.465 512 C 118.692 512, 115.523 508.814, 114.421 498.884 C 114.031 495.373, 113.214 492.169, 112.606 491.765 C 111.021 490.713, 96.776 490.856, 95.059 491.942 M 178.339 492.250 C 177.911 492.938, 177.263 496.362, 176.898 499.859 C 175.952 508.936, 173.418 511.298, 164.055 511.827 L 157.089 512.221 156.452 516.469 C 156.102 518.806, 155.969 527.774, 156.158 536.397 C 156.540 553.917, 156.558 553.958, 163.601 553.985 C 169.597 554.007, 173.854 555.818, 175.530 559.059 C 179.848 567.409, 173.646 575, 162.507 575 C 158.536 575, 157.825 575.330, 156.975 577.565 C 156.439 578.976, 156 581.676, 156 583.565 L 156 587 166.392 587 L 176.783 587 177.463 584.250 C 178.374 580.566, 182.630 576.240, 186.094 575.479 C 191.705 574.247, 198 579.306, 198 585.047 C 198 586.860, 198.751 587, 208.500 587 L 219 587 219 581.607 C 219 575.597, 218.373 575, 212.067 575 C 203.939 575, 199 571.252, 199 565.082 C 199 558.195, 203.853 554, 211.819 554 C 219.355 554, 219 555.037, 219 533 C 219 510.861, 219.409 512, 211.465 512 C 202.839 512, 199.615 508.881, 198.471 499.429 C 198.076 496.168, 197.304 492.938, 196.754 492.250 C 196.099 491.430, 192.892 491, 187.437 491 C 181.864 491, 178.861 491.413, 178.339 492.250 M 430.059 491.942 C 429.177 492.500, 428.351 495.443, 427.927 499.536 C 426.951 508.965, 424.516 511.292, 415.069 511.826 L 408.117 512.219 407.461 517.463 C 407.101 520.347, 406.962 529.314, 407.153 537.391 C 407.541 553.810, 407.608 553.959, 414.601 553.985 C 420.597 554.007, 424.854 555.818, 426.530 559.059 C 428.413 562.700, 428.388 565.350, 426.434 569.128 C 423.905 574.018, 419.997 575, 403.067 575 C 386.130 575, 386 575.060, 386 582.934 L 386 587 406.981 587 L 427.962 587 428.610 584.250 C 429.471 580.595, 433.634 576.239, 436.967 575.507 C 442.422 574.309, 449 579.054, 449 584.189 L 449 587 459.500 587 L 470 587 470 581.607 C 470 575.597, 469.373 575, 463.067 575 C 454.681 575, 450 571.257, 450 564.551 C 450 559.058, 454.265 554.924, 460.532 554.343 C 471.032 553.370, 470 555.686, 470 533.088 C 470 510.851, 470.411 512, 462.465 512 C 453.692 512, 450.523 508.814, 449.421 498.884 C 449.031 495.373, 448.214 492.169, 447.606 491.765 C 446.021 490.713, 431.776 490.856, 430.059 491.942 M 513.339 492.250 C 512.911 492.938, 512.263 496.362, 511.898 499.859 C 510.952 508.936, 508.418 511.298, 499.055 511.827 L 492.089 512.221 491.452 516.469 C 491.102 518.806, 490.969 527.774, 491.158 536.397 C 491.540 553.917, 491.558 553.958, 498.601 553.985 C 504.597 554.007, 508.854 555.818, 510.530 559.059 C 514.848 567.409, 508.646 575, 497.507 575 C 493.536 575, 492.825 575.330, 491.975 577.565 C 491.439 578.976, 491 581.676, 491 583.565 L 491 587 501.392 587 L 511.783 587 512.463 584.250 C 513.374 580.566, 517.630 576.240, 521.094 575.479 C 526.705 574.247, 533 579.306, 533 585.047 C 533 586.860, 533.751 587, 543.500 587 L 554 587 554 581.607 C 554 575.597, 553.373 575, 547.067 575 C 538.939 575, 534 571.252, 534 565.082 C 534 558.195, 538.853 554, 546.819 554 C 554.355 554, 554 555.037, 554 533 C 554 510.861, 554.409 512, 546.465 512 C 537.839 512, 534.615 508.881, 533.471 499.429 C 533.076 496.168, 532.304 492.938, 531.754 492.250 C 531.099 491.430, 527.892 491, 522.437 491 C 516.864 491, 513.861 491.413, 513.339 492.250 M 99.500 513.381 C 94.660 515.609, 93.622 518.380, 93.179 530.253 C 92.959 536.167, 93.083 542.629, 93.455 544.612 C 95.016 552.934, 105.094 556.059, 111.077 550.077 L 114 547.154 114 533.093 C 114 519.152, 113.977 519.006, 111.250 516.013 C 107.997 512.443, 103.653 511.470, 99.500 513.381 M 182.381 513.858 C 178.099 516.540, 177 520.485, 177 533.181 C 177 549.173, 179.131 553, 188.033 553 C 191.402 553, 192.752 552.407, 195.099 549.894 L 198 546.788 198 532.910 C 198 519.176, 197.971 519, 195.250 515.981 C 191.665 512.004, 186.659 511.178, 182.381 513.858 M 434.500 513.381 C 429.660 515.609, 428.622 518.380, 428.179 530.253 C 427.959 536.167, 428.083 542.629, 428.455 544.612 C 430.016 552.934, 440.094 556.059, 446.077 550.077 L 449 547.154 449 533.093 C 449 519.152, 448.977 519.006, 446.250 516.013 C 442.997 512.443, 438.653 511.470, 434.500 513.381 M 517.381 513.858 C 513.099 516.540, 512 520.485, 512 533.181 C 512 549.173, 514.131 553, 523.033 553 C 526.402 553, 527.752 552.407, 530.099 549.894 L 533 546.788 533 532.910 C 533 519.176, 532.971 519, 530.250 515.981 C 526.665 512.004, 521.659 511.178, 517.381 513.858" stroke="none" fill="var(--lightgary)" fill-rule="evenodd"/></g></svg>